<svg width="114" height="113" viewBox="0 0 114 113" fill="none" xmlns="http://www.w3.org/2000/svg">
<path d="M113.842 100.342C113.842 103.664 112.511 106.85 110.142 109.2C107.774 111.549 104.561 112.868 101.211 112.868H12.7895C9.43944 112.868 6.22655 111.549 3.85767 109.2C1.48878 106.85 0.157959 103.664 0.157959 100.342V12.6579C0.157959 9.33569 1.48878 6.14958 3.85767 3.80045C6.22655 1.4513 9.43944 0.131569 12.7895 0.131569H101.211C104.561 0.131569 107.774 1.4513 110.142 3.80045C112.511 6.14958 113.842 9.33569 113.842 12.6579V100.342Z" fill="#EADFCE"/>
<path d="M57.7643 35.7971H57.5685L44.3496 62.8852H57.7643V35.7971ZM34.1685 75.7028C29.3717 75.7028 27.3127 72.5023 27.3127 69.9751C27.3127 67.8394 28.0959 66.6713 28.6864 65.7036L50.618 26.2802C52.7717 22.397 55.5127 20.6496 60.6033 20.6496C66.2843 20.6496 71.8643 24.2447 71.8643 33.0789V62.8852H73.5317C77.3496 62.8852 80.3843 65.4124 80.3843 69.2956C80.3843 73.1819 77.3496 75.7028 73.5317 75.7028H71.8643V83.9576C71.8643 89.1028 69.8085 91.5298 64.8159 91.5298C59.8201 91.5298 57.7643 89.1028 57.7643 83.9576V75.7028H34.1685Z" fill="white"/>
</svg>
