<svg width="1135" height="47" viewBox="0 0 1135 47" fill="none" xmlns="http://www.w3.org/2000/svg">
<path d="M18.1514 29.9336C21.4554 29.8958 24.4385 29.8014 27.1006 29.6504C29.7627 29.4993 31.3298 29.6787 31.8018 30.1885C32.3115 30.6038 32.6797 32.4069 32.9062 35.5977C33.1517 38.7884 33.0667 41.1012 32.6514 42.5361C32.4626 43.1403 30.9805 43.6406 28.2051 44.0371C25.4297 44.4336 22.3145 44.7074 18.8594 44.8584C15.4043 44.9906 12.0908 45.0094 8.91895 44.915C5.74707 44.8206 3.67969 44.5658 2.7168 44.1504C2.15039 43.9238 1.67839 42.404 1.30078 39.5908C0.942057 36.7588 0.658854 33.4548 0.451172 29.6787C0.24349 25.8838 0.120768 22.0228 0.0830078 18.0957C0.0452474 14.1497 0.0830078 10.9401 0.196289 8.4668C0.196289 7.10742 0.30957 5.87077 0.536133 4.75684C0.762695 3.62402 1.11198 2.91602 1.58398 2.63281C2.05599 2.34961 3.71745 2.10417 6.56836 1.89648C9.41927 1.6888 12.4967 1.56608 15.8008 1.52832C19.1048 1.47168 22.1634 1.52832 24.9766 1.69824C27.7897 1.84928 29.404 2.13249 29.8193 2.54785C30.3291 2.96322 30.6123 4.60579 30.6689 7.47559C30.7445 10.3265 30.5745 12.4788 30.1592 13.9326C29.9515 14.6123 28.6204 15.0371 26.166 15.207C23.7305 15.3581 20.8796 15.4902 17.6133 15.6035C17.6133 15.8301 17.6227 16.0944 17.6416 16.3965C17.6605 16.6986 17.6794 16.9629 17.6982 17.1895C19.8317 17.2272 21.5687 17.3877 22.9092 17.6709C23.2301 17.7653 23.5417 18.3317 23.8438 19.3701C24.1647 20.3896 24.3818 21.513 24.4951 22.7402C24.6273 23.9486 24.6273 25.0719 24.4951 26.1104C24.363 27.1488 24.0326 27.7057 23.5039 27.7812C23.1263 27.8945 22.4372 27.9984 21.4365 28.0928C20.4548 28.1683 19.3597 28.2249 18.1514 28.2627C18.1514 28.5081 18.1514 28.7913 18.1514 29.1123C18.1514 29.4333 18.1514 29.707 18.1514 29.9336ZM62.4443 16.9062C64.3135 14.1309 66.1165 11.4782 67.8535 8.94824C69.6094 6.41829 71.1576 4.51139 72.498 3.22754C73.0833 2.66113 74.2256 2.24577 75.9248 1.98145C77.624 1.71712 79.3893 1.5944 81.2207 1.61328C83.071 1.63216 84.7419 1.77376 86.2334 2.03809C87.7438 2.30241 88.6123 2.67057 88.8389 3.14258C89.1976 3.97331 89.4808 6.42773 89.6885 10.5059C89.8962 14.5651 90 18.9548 90 23.6748C90 28.3949 89.8867 32.7751 89.6602 36.8154C89.4336 40.8369 89.0654 43.2158 88.5557 43.9521C88.1592 44.4053 86.2334 44.6979 82.7783 44.8301C79.3232 44.9434 76.8971 44.8584 75.5 44.5752C74.9336 44.4619 74.4144 42.8288 73.9424 39.6758C73.4704 36.5228 73.1494 33.332 72.9795 30.1035C72.6019 30.5 71.9222 31.208 70.9404 32.2275C69.9775 33.2471 68.9391 34.2949 67.8252 35.3711C66.7113 36.4473 65.6351 37.4007 64.5967 38.2314C63.5771 39.0622 62.8219 39.4775 62.3311 39.4775C61.8402 39.4775 61.0944 39.0811 60.0938 38.2881C59.112 37.4951 58.083 36.5889 57.0068 35.5693C55.9495 34.5309 54.9489 33.5208 54.0049 32.5391C53.0798 31.5573 52.4378 30.8776 52.0791 30.5C51.8525 33.5208 51.5127 36.5794 51.0596 39.6758C50.6064 42.7721 50.1156 44.4053 49.5869 44.5752C48.8883 44.7829 47.8499 44.9056 46.4717 44.9434C45.0934 44.9811 43.6963 44.9717 42.2803 44.915C40.8643 44.8584 39.5898 44.7451 38.457 44.5752C37.3431 44.3864 36.7106 44.1787 36.5596 43.9521C36.0498 43.2347 35.6628 40.818 35.3984 36.7021C35.1341 32.5863 34.9925 28.1494 34.9736 23.3916C34.9548 18.6149 35.0303 14.1969 35.2002 10.1377C35.3701 6.05957 35.6533 3.70898 36.0498 3.08594C36.333 2.63281 37.2298 2.27409 38.7402 2.00977C40.2507 1.74544 41.9121 1.61328 43.7246 1.61328C45.5371 1.5944 47.2741 1.71712 48.9355 1.98145C50.6159 2.24577 51.7581 2.66113 52.3623 3.22754C53.6839 4.51139 55.2321 6.41829 57.0068 8.94824C58.8005 11.4782 60.613 14.1309 62.4443 16.9062ZM127.978 21.2393C127.317 25.4307 125.41 28.9329 122.257 31.7461C119.104 34.5592 115.337 35.7676 110.957 35.3711C110.787 37.5423 110.579 39.3737 110.334 40.8652C110.107 42.3568 109.853 43.2725 109.569 43.6123C109.173 44.3486 107.238 44.7923 103.764 44.9434C100.29 45.0944 97.8353 44.8584 96.4004 44.2354C95.7585 43.9521 95.1826 42.0641 94.6729 38.5713C94.182 35.0596 93.776 31.1136 93.4551 26.7334C93.153 22.3532 92.9548 18.1429 92.8604 14.1025C92.766 10.0433 92.7848 7.32454 92.917 5.94629C93.0492 4.66243 94.1348 3.68066 96.1738 3.00098C98.2318 2.32129 100.611 1.89648 103.311 1.72656C106.01 1.55664 108.729 1.62272 111.467 1.9248C114.204 2.20801 116.338 2.67057 117.867 3.3125C125.929 6.71094 129.299 12.6865 127.978 21.2393ZM115.8 17.8408C115.366 15.8018 113.987 14.6595 111.665 14.4141C111.231 14.3952 110.882 14.4046 110.617 14.4424C108.805 14.7633 107.983 16.0566 108.153 18.3223C108.323 20.5879 108.927 22.0605 109.966 22.7402C110.419 23.0612 111.108 23.1367 112.033 22.9668C113.411 22.7591 114.44 22.1738 115.12 21.2109C115.819 20.2292 116.045 19.1058 115.8 17.8408ZM175.103 26.3936C174.121 32.3408 171.232 37.1364 166.437 40.7803C161.66 44.4242 156.1 45.7174 149.756 44.6602C143.639 43.6406 138.824 40.7236 135.312 35.9092C131.801 31.0947 130.517 25.7611 131.461 19.9082C132.348 14.4707 134.973 9.91113 139.334 6.22949C143.714 2.52897 148.802 0.933594 154.599 1.44336C161.584 2.04753 167.012 4.7002 170.883 9.40137C174.772 14.1025 176.179 19.7666 175.103 26.3936ZM158.847 23.9863C159.111 22.3626 158.799 20.9844 157.912 19.8516C157.044 18.6999 155.769 17.9824 154.089 17.6992C152.503 17.4349 151.106 17.7842 149.897 18.7471C148.689 19.6911 147.972 20.89 147.745 22.3438C147.443 24.0996 147.934 25.6572 149.218 27.0166C150.502 28.3571 152.088 28.9141 153.976 28.6875C155.278 28.5553 156.364 28.0456 157.232 27.1582C158.101 26.2708 158.639 25.2135 158.847 23.9863ZM226.617 43.5273C226.466 43.9427 225.635 44.2826 224.125 44.5469C222.615 44.7923 220.925 44.9339 219.056 44.9717C217.187 44.9906 215.393 44.915 213.675 44.7451C211.976 44.5752 210.881 44.2637 210.39 43.8105C209.616 43.2064 208.643 42.1774 207.473 40.7236C206.321 39.2699 205.434 38.1276 204.811 37.2969C204.074 38.3164 203.243 39.4587 202.318 40.7236C201.393 41.9886 200.468 43.0176 199.543 43.8105C199.033 44.2259 197.929 44.5186 196.229 44.6885C194.549 44.8395 192.774 44.8962 190.905 44.8584C189.055 44.8206 187.365 44.6885 185.836 44.4619C184.326 44.2165 183.495 43.9049 183.344 43.5273C182.211 40.8464 181.276 37.3724 180.54 33.1055C179.804 28.8385 179.237 24.6188 178.841 20.4463C178.463 16.2738 178.265 12.5827 178.246 9.37305C178.246 6.14453 178.397 4.22819 178.699 3.62402C178.831 3.24642 179.492 2.8877 180.682 2.54785C181.871 2.18913 183.23 1.91536 184.76 1.72656C186.289 1.53776 187.809 1.4528 189.319 1.47168C190.83 1.47168 191.972 1.6416 192.746 1.98145C193.482 2.32129 194.153 4.56803 194.757 8.72168C195.38 12.8753 196.031 17.3027 196.711 22.0039C197.258 21.4186 198.571 19.9837 200.647 17.6992C202.724 15.4147 204.131 14.2441 204.867 14.1875C205.528 14.1309 206.793 15.3014 208.662 17.6992C210.55 20.0781 211.711 21.5319 212.146 22.0605C212.655 17.3594 213.203 12.9225 213.788 8.75C214.373 4.57747 215.034 2.32129 215.771 1.98145C216.507 1.6416 217.611 1.47168 219.084 1.47168C220.576 1.4528 222.067 1.53776 223.559 1.72656C225.069 1.91536 226.419 2.18913 227.608 2.54785C228.798 2.8877 229.468 3.24642 229.619 3.62402C229.959 4.22819 230.157 6.13509 230.214 9.34473C230.271 12.5355 230.176 16.2171 229.931 20.3896C229.685 24.5433 229.279 28.763 228.713 33.0488C228.165 37.3158 227.467 40.8086 226.617 43.5273ZM251.001 29.9336C254.305 29.8958 257.288 29.8014 259.95 29.6504C262.612 29.4993 264.179 29.6787 264.651 30.1885C265.161 30.6038 265.529 32.4069 265.756 35.5977C266.001 38.7884 265.916 41.1012 265.501 42.5361C265.312 43.1403 263.83 43.6406 261.055 44.0371C258.279 44.4336 255.164 44.7074 251.709 44.8584C248.254 44.9906 244.94 45.0094 241.769 44.915C238.597 44.8206 236.529 44.5658 235.566 44.1504C235 43.9238 234.528 42.404 234.15 39.5908C233.792 36.7588 233.508 33.4548 233.301 29.6787C233.093 25.8838 232.97 22.0228 232.933 18.0957C232.895 14.1497 232.933 10.9401 233.046 8.4668C233.046 7.10742 233.159 5.87077 233.386 4.75684C233.612 3.62402 233.962 2.91602 234.434 2.63281C234.906 2.34961 236.567 2.10417 239.418 1.89648C242.269 1.6888 245.346 1.56608 248.65 1.52832C251.954 1.47168 255.013 1.52832 257.826 1.69824C260.639 1.84928 262.254 2.13249 262.669 2.54785C263.179 2.96322 263.462 4.60579 263.519 7.47559C263.594 10.3265 263.424 12.4788 263.009 13.9326C262.801 14.6123 261.47 15.0371 259.016 15.207C256.58 15.3581 253.729 15.4902 250.463 15.6035C250.463 15.8301 250.472 16.0944 250.491 16.3965C250.51 16.6986 250.529 16.9629 250.548 17.1895C252.681 17.2272 254.418 17.3877 255.759 17.6709C256.08 17.7653 256.391 18.3317 256.693 19.3701C257.014 20.3896 257.231 21.513 257.345 22.7402C257.477 23.9486 257.477 25.0719 257.345 26.1104C257.213 27.1488 256.882 27.7057 256.354 27.7812C255.976 27.8945 255.287 27.9984 254.286 28.0928C253.304 28.1683 252.209 28.2249 251.001 28.2627C251.001 28.5081 251.001 28.7913 251.001 29.1123C251.001 29.4333 251.001 29.707 251.001 29.9336ZM298.268 26.8184C300.193 28.4232 301.883 29.9808 303.337 31.4912C304.791 33.0016 305.527 34.1344 305.546 34.8896C305.546 35.4372 305.234 36.249 304.611 37.3252C303.988 38.4014 303.271 39.4775 302.459 40.5537C301.647 41.6299 300.864 42.5739 300.108 43.3857C299.353 44.1976 298.834 44.6035 298.551 44.6035C297.324 44.849 295.53 44.2165 293.17 42.7061C290.829 41.1768 288.941 40.1667 287.506 39.6758C286.109 39.2415 285.354 39.4209 285.24 40.2139C285.259 41.5732 285.136 42.6117 284.872 43.3291C284.608 44.0465 283.683 44.4902 282.097 44.6602C280.284 44.849 278.207 44.9528 275.866 44.9717C273.544 44.9906 272.071 44.9339 271.448 44.8018C271.014 44.7262 270.665 44.4808 270.4 44.0654C270.023 43.5557 269.617 41.2145 269.183 37.042C268.748 32.8695 268.409 28.3477 268.163 23.4766C267.918 18.6055 267.804 14.1309 267.823 10.0527C267.861 5.97461 268.163 3.77507 268.729 3.4541C270.787 2.30241 273.544 1.47168 276.999 0.961914C280.454 0.452148 283.89 0.546549 287.308 1.24512C290.744 1.9248 293.812 3.34082 296.512 5.49316C299.23 7.62663 300.892 10.7607 301.496 14.8955C302.27 20.4085 301.194 24.3828 298.268 26.8184ZM284.022 21.4375C285.457 21.2865 286.571 20.7578 287.364 19.8516C288.157 18.9453 288.544 18.0013 288.525 17.0195C288.525 16.0378 288.072 15.1882 287.166 14.4707C286.279 13.7533 284.891 13.4984 283.003 13.7061C281.455 13.876 280.841 15.2542 281.162 17.8408C281.502 20.4085 282.455 21.6074 284.022 21.4375ZM334.942 16.9062C336.812 14.1309 338.615 11.4782 340.352 8.94824C342.107 6.41829 343.656 4.51139 344.996 3.22754C345.581 2.66113 346.724 2.24577 348.423 1.98145C350.122 1.71712 351.887 1.5944 353.719 1.61328C355.569 1.63216 357.24 1.77376 358.731 2.03809C360.242 2.30241 361.11 2.67057 361.337 3.14258C361.696 3.97331 361.979 6.42773 362.187 10.5059C362.394 14.5651 362.498 18.9548 362.498 23.6748C362.498 28.3949 362.385 32.7751 362.158 36.8154C361.932 40.8369 361.563 43.2158 361.054 43.9521C360.657 44.4053 358.731 44.6979 355.276 44.8301C351.821 44.9434 349.395 44.8584 347.998 44.5752C347.432 44.4619 346.912 42.8288 346.44 39.6758C345.968 36.5228 345.647 33.332 345.478 30.1035C345.1 30.5 344.42 31.208 343.438 32.2275C342.476 33.2471 341.437 34.2949 340.323 35.3711C339.209 36.4473 338.133 37.4007 337.095 38.2314C336.075 39.0622 335.32 39.4775 334.829 39.4775C334.338 39.4775 333.592 39.0811 332.592 38.2881C331.61 37.4951 330.581 36.5889 329.505 35.5693C328.448 34.5309 327.447 33.5208 326.503 32.5391C325.578 31.5573 324.936 30.8776 324.577 30.5C324.351 33.5208 324.011 36.5794 323.558 39.6758C323.104 42.7721 322.614 44.4053 322.085 44.5752C321.386 44.7829 320.348 44.9056 318.97 44.9434C317.591 44.9811 316.194 44.9717 314.778 44.915C313.362 44.8584 312.088 44.7451 310.955 44.5752C309.841 44.3864 309.209 44.1787 309.058 43.9521C308.548 43.2347 308.161 40.818 307.896 36.7021C307.632 32.5863 307.491 28.1494 307.472 23.3916C307.453 18.6149 307.528 14.1969 307.698 10.1377C307.868 6.05957 308.151 3.70898 308.548 3.08594C308.831 2.63281 309.728 2.27409 311.238 2.00977C312.749 1.74544 314.41 1.61328 316.223 1.61328C318.035 1.5944 319.772 1.71712 321.434 1.98145C323.114 2.24577 324.256 2.66113 324.86 3.22754C326.182 4.51139 327.73 6.41829 329.505 8.94824C331.299 11.4782 333.111 14.1309 334.942 16.9062ZM383.37 29.9336C386.674 29.8958 389.657 29.8014 392.319 29.6504C394.981 29.4993 396.549 29.6787 397.021 30.1885C397.53 30.6038 397.898 32.4069 398.125 35.5977C398.37 38.7884 398.285 41.1012 397.87 42.5361C397.681 43.1403 396.199 43.6406 393.424 44.0371C390.648 44.4336 387.533 44.7074 384.078 44.8584C380.623 44.9906 377.31 45.0094 374.138 44.915C370.966 44.8206 368.898 44.5658 367.936 44.1504C367.369 43.9238 366.897 42.404 366.52 39.5908C366.161 36.7588 365.878 33.4548 365.67 29.6787C365.462 25.8838 365.34 22.0228 365.302 18.0957C365.264 14.1497 365.302 10.9401 365.415 8.4668C365.415 7.10742 365.528 5.87077 365.755 4.75684C365.981 3.62402 366.331 2.91602 366.803 2.63281C367.275 2.34961 368.936 2.10417 371.787 1.89648C374.638 1.6888 377.715 1.56608 381.02 1.52832C384.324 1.47168 387.382 1.52832 390.195 1.69824C393.008 1.84928 394.623 2.13249 395.038 2.54785C395.548 2.96322 395.831 4.60579 395.888 7.47559C395.963 10.3265 395.793 12.4788 395.378 13.9326C395.17 14.6123 393.839 15.0371 391.385 15.207C388.949 15.3581 386.098 15.4902 382.832 15.6035C382.832 15.8301 382.841 16.0944 382.86 16.3965C382.879 16.6986 382.898 16.9629 382.917 17.1895C385.05 17.2272 386.787 17.3877 388.128 17.6709C388.449 17.7653 388.76 18.3317 389.062 19.3701C389.383 20.3896 389.601 21.513 389.714 22.7402C389.846 23.9486 389.846 25.0719 389.714 26.1104C389.582 27.1488 389.251 27.7057 388.723 27.7812C388.345 27.8945 387.656 27.9984 386.655 28.0928C385.674 28.1683 384.578 28.2249 383.37 28.2627C383.37 28.5081 383.37 28.7913 383.37 29.1123C383.37 29.4333 383.37 29.707 383.37 29.9336ZM441.2 43.584C440.974 44.0371 440.294 44.3675 439.161 44.5752C438.028 44.7829 436.773 44.9056 435.395 44.9434C434.035 44.9811 432.723 44.9434 431.458 44.8301C430.212 44.7168 429.362 44.5563 428.909 44.3486C428.267 44.0654 427.333 43.3197 426.105 42.1113C424.878 40.8841 423.623 39.5625 422.339 38.1465C421.055 36.7116 419.884 35.3617 418.827 34.0967C417.77 32.8317 417.1 32.001 416.816 31.6045C416.533 34.9652 416.241 37.8538 415.938 40.2705C415.636 42.6683 415.249 43.9805 414.777 44.207C413.38 44.849 410.973 45.0944 407.556 44.9434C404.157 44.7923 402.279 44.3392 401.92 43.584C401.505 43.0176 401.146 41.1201 400.844 37.8916C400.561 34.6631 400.362 30.9531 400.249 26.7617C400.155 22.5703 400.164 18.3223 400.277 14.0176C400.391 9.71289 400.664 6.20117 401.099 3.48242C401.174 2.9349 401.835 2.51953 403.081 2.23633C404.346 1.93424 405.79 1.76432 407.414 1.72656C409.057 1.66992 410.699 1.736 412.342 1.9248C414.003 2.11361 415.278 2.39681 416.165 2.77441C417.468 3.3597 419.091 4.91732 421.036 7.44727C423 9.97721 424.425 11.8936 425.312 13.1963C425.256 11.1761 425.19 9.39193 425.114 7.84375C425.058 6.27669 425.067 5.125 425.143 4.38867C425.18 3.48242 426.049 2.79329 427.748 2.32129C429.447 1.84928 431.307 1.58496 433.327 1.52832C435.366 1.4528 437.235 1.58496 438.935 1.9248C440.653 2.26465 441.559 2.78385 441.653 3.48242C441.937 6.25781 442.106 9.80729 442.163 14.1309C442.239 18.4544 442.239 22.7119 442.163 26.9033C442.106 31.0947 441.984 34.7952 441.795 38.0049C441.606 41.1956 441.408 43.0553 441.2 43.584ZM473.514 43.6123C473.306 43.9899 472.617 44.292 471.446 44.5186C470.276 44.7451 468.954 44.8867 467.481 44.9434C466.028 45 464.583 44.9717 463.148 44.8584C461.714 44.7451 460.628 44.528 459.892 44.207C459.118 43.8672 458.419 41.0918 457.796 35.8809C457.192 30.651 456.729 25.3646 456.408 20.0215C453.614 19.9648 451.207 19.8232 449.187 19.5967C447.166 19.3512 446.052 19.002 445.845 18.5488C445.486 17.8314 445.184 16.6797 444.938 15.0938C444.693 13.4889 444.533 11.8558 444.457 10.1943C444.382 8.514 444.391 7.00358 444.485 5.66309C444.599 4.30371 444.844 3.52018 445.222 3.3125C445.769 2.87826 447.619 2.52897 450.772 2.26465C453.925 2.00033 457.55 1.82096 461.647 1.72656C465.744 1.61328 469.908 1.58496 474.137 1.6416C478.366 1.67936 481.84 1.7832 484.559 1.95312C485.635 2.02865 486.371 2.95378 486.768 4.72852C487.164 6.50326 487.306 8.44792 487.192 10.5625C487.079 12.6771 486.749 14.6217 486.201 16.3965C485.673 18.1712 485.021 19.0869 484.247 19.1436C483.53 19.2568 482.378 19.3701 480.792 19.4834C479.206 19.5778 477.422 19.6628 475.439 19.7383C475.383 25.0625 475.185 30.1979 474.845 35.1445C474.505 40.0723 474.061 42.8949 473.514 43.6123ZM532.986 43.6123C532.779 43.9899 532.09 44.292 530.919 44.5186C529.748 44.7451 528.427 44.8867 526.954 44.9434C525.5 45 524.056 44.9717 522.621 44.8584C521.186 44.7451 520.101 44.528 519.364 44.207C518.59 43.8672 517.892 41.0918 517.269 35.8809C516.664 30.651 516.202 25.3646 515.881 20.0215C513.087 19.9648 510.679 19.8232 508.659 19.5967C506.639 19.3512 505.525 19.002 505.317 18.5488C504.959 17.8314 504.657 16.6797 504.411 15.0938C504.166 13.4889 504.005 11.8558 503.93 10.1943C503.854 8.514 503.864 7.00358 503.958 5.66309C504.071 4.30371 504.317 3.52018 504.694 3.3125C505.242 2.87826 507.092 2.52897 510.245 2.26465C513.398 2.00033 517.023 1.82096 521.12 1.72656C525.217 1.61328 529.38 1.58496 533.609 1.6416C537.839 1.67936 541.312 1.7832 544.031 1.95312C545.107 2.02865 545.844 2.95378 546.24 4.72852C546.637 6.50326 546.778 8.44792 546.665 10.5625C546.552 12.6771 546.221 14.6217 545.674 16.3965C545.145 18.1712 544.494 19.0869 543.72 19.1436C543.002 19.2568 541.851 19.3701 540.265 19.4834C538.679 19.5778 536.895 19.6628 534.912 19.7383C534.855 25.0625 534.657 30.1979 534.317 35.1445C533.978 40.0723 533.534 42.8949 532.986 43.6123ZM565.583 43.584C565.224 44.3203 563.44 44.7734 560.23 44.9434C557.04 45.0944 554.765 44.8584 553.405 44.2354C552.801 43.9521 552.206 42.0169 551.621 38.4297C551.055 34.8236 550.554 30.7832 550.12 26.3086C549.705 21.834 549.384 17.5293 549.157 13.3945C548.95 9.24089 548.902 6.46549 549.016 5.06836C549.129 3.91667 550.082 3.03874 551.876 2.43457C553.67 1.8304 555.633 1.5 557.767 1.44336C559.9 1.36784 561.864 1.55664 563.657 2.00977C565.451 2.46289 566.404 3.16146 566.518 4.10547C566.688 5.71029 566.82 7.61719 566.914 9.82617C567.027 12.0163 567.103 14.3291 567.141 16.7646C568.745 16.6891 570.426 16.6325 572.182 16.5947C572.106 14.1781 572.068 11.8936 572.068 9.74121C572.087 7.56999 572.153 5.69141 572.267 4.10547C572.323 3.14258 573.239 2.43457 575.014 1.98145C576.788 1.50944 578.743 1.30176 580.876 1.3584C583.009 1.41504 584.982 1.74544 586.795 2.34961C588.626 2.9349 589.627 3.80339 589.797 4.95508C589.986 6.35221 590.052 9.1276 589.995 13.2812C589.957 17.416 589.816 21.7301 589.57 26.2236C589.344 30.6982 589.013 34.7292 588.579 38.3164C588.164 41.9036 587.673 43.8389 587.106 44.1221C585.785 44.764 583.519 45.0189 580.31 44.8867C577.119 44.7357 575.325 44.292 574.929 43.5557C574.627 43.1592 574.325 42.0169 574.022 40.1289C573.72 38.222 573.447 35.9092 573.201 33.1904C572.144 33.3981 571.068 33.5869 569.973 33.7568C568.896 33.9079 567.839 34.0495 566.801 34.1816C566.65 36.6549 566.47 38.7412 566.263 40.4404C566.055 42.1396 565.828 43.1875 565.583 43.584ZM622.592 26.8184C624.518 28.4232 626.207 29.9808 627.661 31.4912C629.115 33.0016 629.851 34.1344 629.87 34.8896C629.87 35.4372 629.559 36.249 628.936 37.3252C628.312 38.4014 627.595 39.4775 626.783 40.5537C625.971 41.6299 625.188 42.5739 624.433 43.3857C623.677 44.1976 623.158 44.6035 622.875 44.6035C621.648 44.849 619.854 44.2165 617.494 42.7061C615.153 41.1768 613.265 40.1667 611.83 39.6758C610.433 39.2415 609.678 39.4209 609.564 40.2139C609.583 41.5732 609.461 42.6117 609.196 43.3291C608.932 44.0465 608.007 44.4902 606.421 44.6602C604.608 44.849 602.532 44.9528 600.19 44.9717C597.868 44.9906 596.396 44.9339 595.772 44.8018C595.338 44.7262 594.989 44.4808 594.725 44.0654C594.347 43.5557 593.941 41.2145 593.507 37.042C593.073 32.8695 592.733 28.3477 592.487 23.4766C592.242 18.6055 592.129 14.1309 592.147 10.0527C592.185 5.97461 592.487 3.77507 593.054 3.4541C595.112 2.30241 597.868 1.47168 601.323 0.961914C604.778 0.452148 608.215 0.546549 611.632 1.24512C615.068 1.9248 618.136 3.34082 620.836 5.49316C623.555 7.62663 625.216 10.7607 625.82 14.8955C626.594 20.4085 625.518 24.3828 622.592 26.8184ZM608.347 21.4375C609.782 21.2865 610.896 20.7578 611.688 19.8516C612.481 18.9453 612.868 18.0013 612.85 17.0195C612.85 16.0378 612.396 15.1882 611.49 14.4707C610.603 13.7533 609.215 13.4984 607.327 13.7061C605.779 13.876 605.165 15.2542 605.486 17.8408C605.826 20.4085 606.78 21.6074 608.347 21.4375ZM675.069 26.3936C674.088 32.3408 671.199 37.1364 666.403 40.7803C661.627 44.4242 656.066 45.7174 649.723 44.6602C643.605 43.6406 638.791 40.7236 635.279 35.9092C631.768 31.0947 630.484 25.7611 631.428 19.9082C632.315 14.4707 634.939 9.91113 639.301 6.22949C643.681 2.52897 648.769 0.933594 654.565 1.44336C661.551 2.04753 666.979 4.7002 670.85 9.40137C674.739 14.1025 676.146 19.7666 675.069 26.3936ZM658.813 23.9863C659.078 22.3626 658.766 20.9844 657.879 19.8516C657.01 18.6999 655.736 17.9824 654.056 17.6992C652.47 17.4349 651.073 17.7842 649.864 18.7471C648.656 19.6911 647.938 20.89 647.712 22.3438C647.41 24.0996 647.901 25.6572 649.185 27.0166C650.468 28.3571 652.054 28.9141 653.942 28.6875C655.245 28.5553 656.331 28.0456 657.199 27.1582C658.068 26.2708 658.606 25.2135 658.813 23.9863ZM706.052 3.99219C706.071 3.48242 706.835 3.08594 708.346 2.80273C709.856 2.50065 711.527 2.34961 713.358 2.34961C715.209 2.33073 716.936 2.47233 718.541 2.77441C720.165 3.0765 721.118 3.56738 721.401 4.24707C721.798 5.24772 722.072 6.9847 722.223 9.45801C722.393 11.9313 722.421 14.6217 722.308 17.5293C722.213 20.4368 721.958 23.2878 721.543 26.082C721.146 28.8763 720.58 31.0853 719.844 32.709C718.258 36.1829 715.936 39.015 712.877 41.2051C709.837 43.3952 706.354 44.6413 702.427 44.9434C697.48 45.2832 692.873 44.0749 688.606 41.3184C684.34 38.543 681.385 34.8613 679.742 30.2734C679.195 28.7819 678.798 26.639 678.553 23.8447C678.326 21.0505 678.222 18.2184 678.241 15.3486C678.26 12.4788 678.43 9.87337 678.751 7.53223C679.072 5.1722 679.544 3.68066 680.167 3.05762C680.696 2.54785 681.8 2.20801 683.48 2.03809C685.161 1.86816 686.898 1.8304 688.691 1.9248C690.504 2.01921 692.109 2.23633 693.506 2.57617C694.922 2.89714 695.63 3.3125 695.63 3.82227C695.592 5.29492 695.469 7.3623 695.262 10.0244C695.054 12.6676 694.997 15.3109 695.092 17.9541C695.205 20.5785 695.602 22.9007 696.281 24.9209C696.98 26.9222 698.216 28.0173 699.991 28.2061C701.917 28.4326 703.295 27.5547 704.126 25.5723C704.976 23.571 705.523 21.2015 705.769 18.4639C706.033 15.7074 706.118 12.9414 706.023 10.166C705.948 7.39062 705.957 5.33268 706.052 3.99219ZM749.977 15.8301C748.258 15.7357 746.739 15.915 745.417 16.3682C743.586 17.029 742.255 18.0863 741.424 19.54C740.593 20.9938 740.272 22.4759 740.461 23.9863C740.65 25.4779 741.348 26.8184 742.557 28.0078C743.765 29.1784 745.502 29.8203 747.768 29.9336C749.41 29.9525 750.326 29.4333 750.515 28.376C750.703 27.2998 750.873 26.2236 751.024 25.1475C750.949 24.43 751.647 23.8164 753.12 23.3066C754.593 22.7969 756.235 22.457 758.048 22.2871C759.879 22.1172 761.578 22.1549 763.146 22.4004C764.731 22.627 765.581 23.1178 765.694 23.873C765.883 25.2891 766.025 27.0921 766.119 29.2822C766.232 31.4535 766.28 33.5964 766.261 35.7109C766.242 37.8255 766.147 39.6947 765.978 41.3184C765.826 42.9421 765.59 43.8955 765.27 44.1787C764.967 44.5752 763.448 44.8112 760.71 44.8867C757.991 44.9622 756.056 44.8301 754.904 44.4902C754.734 44.4714 754.564 44.3203 754.395 44.0371C750.996 44.849 747.654 45.1416 744.369 44.915C738.554 44.4619 733.683 42.1868 729.756 38.0898C725.829 33.9928 724.196 28.9329 724.856 22.9102C725.593 16.3398 727.981 11.2139 732.021 7.53223C736.081 3.85059 741.197 1.84928 747.371 1.52832C751.449 1.33952 755.15 2.17025 758.473 4.02051C761.814 5.87077 763.523 9.21257 763.599 14.0459C763.674 14.7822 763.212 15.4053 762.211 15.915C761.21 16.4059 760.021 16.8024 758.643 17.1045C757.283 17.3877 755.933 17.5765 754.593 17.6709C753.252 17.7653 752.289 17.7653 751.704 17.6709C750.892 17.5576 750.496 17.2367 750.515 16.708C750.552 16.1794 750.373 15.8867 749.977 15.8301ZM785.009 43.584C784.65 44.3203 782.866 44.7734 779.656 44.9434C776.465 45.0944 774.19 44.8584 772.831 44.2354C772.227 43.9521 771.632 42.0169 771.047 38.4297C770.48 34.8236 769.98 30.7832 769.546 26.3086C769.131 21.834 768.81 17.5293 768.583 13.3945C768.375 9.24089 768.328 6.46549 768.441 5.06836C768.555 3.91667 769.508 3.03874 771.302 2.43457C773.095 1.8304 775.059 1.5 777.192 1.44336C779.326 1.36784 781.289 1.55664 783.083 2.00977C784.877 2.46289 785.83 3.16146 785.943 4.10547C786.113 5.71029 786.245 7.61719 786.34 9.82617C786.453 12.0163 786.529 14.3291 786.566 16.7646C788.171 16.6891 789.852 16.6325 791.607 16.5947C791.532 14.1781 791.494 11.8936 791.494 9.74121C791.513 7.56999 791.579 5.69141 791.692 4.10547C791.749 3.14258 792.665 2.43457 794.439 1.98145C796.214 1.50944 798.168 1.30176 800.302 1.3584C802.435 1.41504 804.408 1.74544 806.221 2.34961C808.052 2.9349 809.053 3.80339 809.223 4.95508C809.411 6.35221 809.478 9.1276 809.421 13.2812C809.383 17.416 809.242 21.7301 808.996 26.2236C808.77 30.6982 808.439 34.7292 808.005 38.3164C807.59 41.9036 807.099 43.8389 806.532 44.1221C805.211 44.764 802.945 45.0189 799.735 44.8867C796.545 44.7357 794.751 44.292 794.354 43.5557C794.052 43.1592 793.75 42.0169 793.448 40.1289C793.146 38.222 792.872 35.9092 792.627 33.1904C791.57 33.3981 790.493 33.5869 789.398 33.7568C788.322 33.9079 787.265 34.0495 786.227 34.1816C786.076 36.6549 785.896 38.7412 785.688 40.4404C785.481 42.1396 785.254 43.1875 785.009 43.584ZM844.028 29.9336C847.332 29.8958 850.315 29.8014 852.978 29.6504C855.64 29.4993 857.207 29.6787 857.679 30.1885C858.188 30.6038 858.557 32.4069 858.783 35.5977C859.029 38.7884 858.944 41.1012 858.528 42.5361C858.34 43.1403 856.857 43.6406 854.082 44.0371C851.307 44.4336 848.191 44.7074 844.736 44.8584C841.281 44.9906 837.968 45.0094 834.796 44.915C831.624 44.8206 829.557 44.5658 828.594 44.1504C828.027 43.9238 827.555 42.404 827.178 39.5908C826.819 36.7588 826.536 33.4548 826.328 29.6787C826.12 25.8838 825.998 22.0228 825.96 18.0957C825.922 14.1497 825.96 10.9401 826.073 8.4668C826.073 7.10742 826.187 5.87077 826.413 4.75684C826.64 3.62402 826.989 2.91602 827.461 2.63281C827.933 2.34961 829.594 2.10417 832.445 1.89648C835.296 1.6888 838.374 1.56608 841.678 1.52832C844.982 1.47168 848.04 1.52832 850.854 1.69824C853.667 1.84928 855.281 2.13249 855.696 2.54785C856.206 2.96322 856.489 4.60579 856.546 7.47559C856.621 10.3265 856.451 12.4788 856.036 13.9326C855.828 14.6123 854.497 15.0371 852.043 15.207C849.607 15.3581 846.757 15.4902 843.49 15.6035C843.49 15.8301 843.5 16.0944 843.519 16.3965C843.537 16.6986 843.556 16.9629 843.575 17.1895C845.709 17.2272 847.446 17.3877 848.786 17.6709C849.107 17.7653 849.419 18.3317 849.721 19.3701C850.042 20.3896 850.259 21.513 850.372 22.7402C850.504 23.9486 850.504 25.0719 850.372 26.1104C850.24 27.1488 849.91 27.7057 849.381 27.7812C849.003 27.8945 848.314 27.9984 847.313 28.0928C846.332 28.1683 845.237 28.2249 844.028 28.2627C844.028 28.5081 844.028 28.7913 844.028 29.1123C844.028 29.4333 844.028 29.707 844.028 29.9336ZM888.321 16.9062C890.19 14.1309 891.993 11.4782 893.73 8.94824C895.486 6.41829 897.035 4.51139 898.375 3.22754C898.96 2.66113 900.103 2.24577 901.802 1.98145C903.501 1.71712 905.266 1.5944 907.098 1.61328C908.948 1.63216 910.619 1.77376 912.11 2.03809C913.621 2.30241 914.489 2.67057 914.716 3.14258C915.075 3.97331 915.358 6.42773 915.565 10.5059C915.773 14.5651 915.877 18.9548 915.877 23.6748C915.877 28.3949 915.764 32.7751 915.537 36.8154C915.311 40.8369 914.942 43.2158 914.433 43.9521C914.036 44.4053 912.11 44.6979 908.655 44.8301C905.2 44.9434 902.774 44.8584 901.377 44.5752C900.811 44.4619 900.291 42.8288 899.819 39.6758C899.347 36.5228 899.026 33.332 898.856 30.1035C898.479 30.5 897.799 31.208 896.817 32.2275C895.854 33.2471 894.816 34.2949 893.702 35.3711C892.588 36.4473 891.512 37.4007 890.474 38.2314C889.454 39.0622 888.699 39.4775 888.208 39.4775C887.717 39.4775 886.971 39.0811 885.971 38.2881C884.989 37.4951 883.96 36.5889 882.884 35.5693C881.826 34.5309 880.826 33.5208 879.882 32.5391C878.957 31.5573 878.315 30.8776 877.956 30.5C877.729 33.5208 877.39 36.5794 876.937 39.6758C876.483 42.7721 875.993 44.4053 875.464 44.5752C874.765 44.7829 873.727 44.9056 872.349 44.9434C870.97 44.9811 869.573 44.9717 868.157 44.915C866.741 44.8584 865.467 44.7451 864.334 44.5752C863.22 44.3864 862.588 44.1787 862.437 43.9521C861.927 43.2347 861.54 40.818 861.275 36.7021C861.011 32.5863 860.869 28.1494 860.851 23.3916C860.832 18.6149 860.907 14.1969 861.077 10.1377C861.247 6.05957 861.53 3.70898 861.927 3.08594C862.21 2.63281 863.107 2.27409 864.617 2.00977C866.128 1.74544 867.789 1.61328 869.602 1.61328C871.414 1.5944 873.151 1.71712 874.812 1.98145C876.493 2.24577 877.635 2.66113 878.239 3.22754C879.561 4.51139 881.109 6.41829 882.884 8.94824C884.677 11.4782 886.49 14.1309 888.321 16.9062ZM953.854 21.2393C953.194 25.4307 951.287 28.9329 948.134 31.7461C944.981 34.5592 941.214 35.7676 936.834 35.3711C936.664 37.5423 936.456 39.3737 936.211 40.8652C935.984 42.3568 935.729 43.2725 935.446 43.6123C935.05 44.3486 933.115 44.7923 929.641 44.9434C926.167 45.0944 923.712 44.8584 922.277 44.2354C921.635 43.9521 921.06 42.0641 920.55 38.5713C920.059 35.0596 919.653 31.1136 919.332 26.7334C919.03 22.3532 918.832 18.1429 918.737 14.1025C918.643 10.0433 918.662 7.32454 918.794 5.94629C918.926 4.66243 920.012 3.68066 922.051 3.00098C924.109 2.32129 926.488 1.89648 929.188 1.72656C931.887 1.55664 934.606 1.62272 937.344 1.9248C940.081 2.20801 942.215 2.67057 943.744 3.3125C951.806 6.71094 955.176 12.6865 953.854 21.2393ZM941.677 17.8408C941.243 15.8018 939.864 14.6595 937.542 14.4141C937.108 14.3952 936.758 14.4046 936.494 14.4424C934.682 14.7633 933.86 16.0566 934.03 18.3223C934.2 20.5879 934.804 22.0605 935.843 22.7402C936.296 23.0612 936.985 23.1367 937.91 22.9668C939.288 22.7591 940.317 22.1738 940.997 21.2109C941.696 20.2292 941.922 19.1058 941.677 17.8408ZM958.301 44.0371C957.942 43.6595 957.753 43.1969 957.734 42.6494C957.697 40.818 958.018 38.0615 958.697 34.3799C959.377 30.6982 960.227 26.875 961.246 22.9102C962.266 18.9264 963.342 15.1976 964.475 11.7236C965.626 8.24967 966.627 5.80469 967.477 4.38867C967.816 3.84115 968.808 3.35026 970.45 2.91602C972.112 2.46289 973.943 2.15137 975.944 1.98145C977.946 1.81152 979.871 1.82096 981.722 2.00977C983.572 2.17969 984.865 2.60449 985.602 3.28418C986.659 4.30371 987.905 6.54102 989.34 9.99609C990.794 13.4512 992.21 17.2178 993.588 21.2959C994.966 25.3551 996.203 29.2539 997.298 32.9922C998.393 36.7305 999.12 39.3737 999.479 40.9219C999.724 42.0547 999.648 42.8477 999.252 43.3008C998.855 43.735 998.166 44.0371 997.185 44.207C995.523 44.4902 993.456 44.7074 990.982 44.8584C988.528 44.9906 986.989 45.0189 986.366 44.9434C986.121 44.9056 985.894 44.8206 985.687 44.6885C985.007 44.2731 984.346 43.0837 983.704 41.1201C983.081 39.1377 982.467 37.7783 981.863 37.042C981.505 36.6077 981.033 36.3529 980.447 36.2773L975.803 36.249C974.349 36.2868 973.405 36.7682 972.971 37.6934C972.404 38.8828 971.762 40.2044 971.045 41.6582C970.327 43.112 969.799 44.0088 969.459 44.3486C969.289 44.5563 969.034 44.6979 968.694 44.7734C967.92 44.9434 966.089 44.9906 963.2 44.915C960.33 44.8206 958.697 44.528 958.301 44.0371ZM976.652 19.0586C976.029 19.7194 975.406 20.8333 974.783 22.4004C974.179 23.9486 973.962 24.9681 974.132 25.459C974.415 26.2897 975.633 26.6673 977.785 26.5918C979.956 26.4974 981.136 25.9688 981.325 25.0059C981.438 24.4206 980.872 23.0895 979.626 21.0127C978.38 18.917 977.389 18.2656 976.652 19.0586ZM1030.52 43.6123C1030.31 43.9899 1029.62 44.292 1028.45 44.5186C1027.28 44.7451 1025.96 44.8867 1024.49 44.9434C1023.03 45 1021.59 44.9717 1020.15 44.8584C1018.72 44.7451 1017.63 44.528 1016.9 44.207C1016.12 43.8672 1015.42 41.0918 1014.8 35.8809C1014.2 30.651 1013.73 25.3646 1013.41 20.0215C1010.62 19.9648 1008.21 19.8232 1006.19 19.5967C1004.17 19.3512 1003.06 19.002 1002.85 18.5488C1002.49 17.8314 1002.19 16.6797 1001.94 15.0938C1001.7 13.4889 1001.54 11.8558 1001.46 10.1943C1001.39 8.514 1001.39 7.00358 1001.49 5.66309C1001.6 4.30371 1001.85 3.52018 1002.23 3.3125C1002.77 2.87826 1004.62 2.52897 1007.78 2.26465C1010.93 2.00033 1014.55 1.82096 1018.65 1.72656C1022.75 1.61328 1026.91 1.58496 1031.14 1.6416C1035.37 1.67936 1038.84 1.7832 1041.56 1.95312C1042.64 2.02865 1043.38 2.95378 1043.77 4.72852C1044.17 6.50326 1044.31 8.44792 1044.2 10.5625C1044.08 12.6771 1043.75 14.6217 1043.21 16.3965C1042.68 18.1712 1042.03 19.0869 1041.25 19.1436C1040.53 19.2568 1039.38 19.3701 1037.8 19.4834C1036.21 19.5778 1034.43 19.6628 1032.44 19.7383C1032.39 25.0625 1032.19 30.1979 1031.85 35.1445C1031.51 40.0723 1031.07 42.8949 1030.52 43.6123ZM1063.11 43.584C1062.76 44.3203 1060.97 44.7734 1057.76 44.9434C1054.57 45.0944 1052.3 44.8584 1050.94 44.2354C1050.33 43.9521 1049.74 42.0169 1049.15 38.4297C1048.59 34.8236 1048.09 30.7832 1047.65 26.3086C1047.24 21.834 1046.92 17.5293 1046.69 13.3945C1046.48 9.24089 1046.43 6.46549 1046.55 5.06836C1046.66 3.91667 1047.61 3.03874 1049.41 2.43457C1051.2 1.8304 1053.16 1.5 1055.3 1.44336C1057.43 1.36784 1059.39 1.55664 1061.19 2.00977C1062.98 2.46289 1063.94 3.16146 1064.05 4.10547C1064.22 5.71029 1064.35 7.61719 1064.45 9.82617C1064.56 12.0163 1064.63 14.3291 1064.67 16.7646C1066.28 16.6891 1067.96 16.6325 1069.71 16.5947C1069.64 14.1781 1069.6 11.8936 1069.6 9.74121C1069.62 7.56999 1069.68 5.69141 1069.8 4.10547C1069.85 3.14258 1070.77 2.43457 1072.54 1.98145C1074.32 1.50944 1076.27 1.30176 1078.41 1.3584C1080.54 1.41504 1082.51 1.74544 1084.33 2.34961C1086.16 2.9349 1087.16 3.80339 1087.33 4.95508C1087.52 6.35221 1087.58 9.1276 1087.53 13.2812C1087.49 17.416 1087.35 21.7301 1087.1 26.2236C1086.88 30.6982 1086.54 34.7292 1086.11 38.3164C1085.69 41.9036 1085.2 43.8389 1084.64 44.1221C1083.32 44.764 1081.05 45.0189 1077.84 44.8867C1074.65 44.7357 1072.86 44.292 1072.46 43.5557C1072.16 43.1592 1071.86 42.0169 1071.55 40.1289C1071.25 38.222 1070.98 35.9092 1070.73 33.1904C1069.68 33.3981 1068.6 33.5869 1067.5 33.7568C1066.43 33.9079 1065.37 34.0495 1064.33 34.1816C1064.18 36.6549 1064 38.7412 1063.79 40.4404C1063.59 42.1396 1063.36 43.1875 1063.11 43.584ZM1134.45 12.8564C1134.32 13.7249 1133.06 15.6318 1130.66 18.5771C1128.28 21.5036 1125.42 24.5811 1122.08 27.8096C1121.89 31.7744 1121.54 35.3333 1121.03 38.4863C1120.54 41.6393 1120.09 43.4896 1119.67 44.0371C1119.44 44.3014 1118.67 44.5091 1117.35 44.6602C1116.04 44.8112 1114.61 44.9056 1113.04 44.9434C1111.49 44.9811 1110.03 44.9811 1108.65 44.9434C1107.29 44.9056 1106.47 44.8018 1106.19 44.6318C1105.57 44.292 1104.92 42.555 1104.24 39.4209C1103.57 36.2679 1103.06 32.7184 1102.71 28.7725C1099.21 25.4873 1096.19 22.3343 1093.64 19.3135C1091.11 16.2926 1089.79 14.3291 1089.68 13.4229C1089.55 12.8942 1089.87 12.0068 1090.64 10.7607C1091.42 9.51465 1092.35 8.25911 1093.45 6.99414C1094.54 5.71029 1095.64 4.57747 1096.73 3.5957C1097.84 2.61393 1098.65 2.10417 1099.14 2.06641C1100.23 2.00977 1101.97 2.95378 1104.35 4.89844C1106.75 6.82422 1109.3 9.08984 1112.02 11.6953C1114.76 9.08984 1117.32 6.80534 1119.7 4.8418C1122.1 2.87826 1123.86 1.93424 1124.99 2.00977C1125.47 2.04753 1126.25 2.53841 1127.34 3.48242C1128.46 4.40755 1129.56 5.47428 1130.66 6.68262C1131.77 7.89095 1132.72 9.08984 1133.49 10.2793C1134.28 11.4688 1134.6 12.3278 1134.45 12.8564Z" fill="#183282"/>
</svg>
