<svg width="115" height="32" viewBox="0 0 115 32" fill="none" xmlns="http://www.w3.org/2000/svg">
<mask id="path-1-outside-1_217_2137" maskUnits="userSpaceOnUse" x="-2" y="-2" width="118" height="36" fill="black">
<rect fill="white" x="-2" y="-2" width="118" height="36"/>
<path d="M18.4219 10.8828C17.237 10.8177 16.1888 10.9414 15.2773 11.2539C14.0143 11.7096 13.0964 12.4388 12.5234 13.4414C11.9505 14.444 11.7292 15.4661 11.8594 16.5078C11.9896 17.5365 12.4714 18.4609 13.3047 19.2812C14.138 20.0885 15.3359 20.5312 16.8984 20.6094C18.0312 20.6224 18.6628 20.2643 18.793 19.5352C18.9232 18.793 19.0404 18.0508 19.1445 17.3086C19.0924 16.8138 19.5742 16.3906 20.5898 16.0391C21.6055 15.6875 22.7383 15.4531 23.9883 15.3359C25.2513 15.2188 26.4232 15.2448 27.5039 15.4141C28.5977 15.5703 29.1836 15.9089 29.2617 16.4297C29.3919 17.4062 29.4896 18.6497 29.5547 20.1602C29.6328 21.6576 29.6654 23.1354 29.6523 24.5938C29.6393 26.0521 29.5742 27.3411 29.457 28.4609C29.3529 29.5807 29.1901 30.2383 28.9688 30.4336C28.7604 30.707 27.7122 30.8698 25.8242 30.9219C23.9492 30.974 22.6146 30.8828 21.8203 30.6484C21.7031 30.6354 21.5859 30.5312 21.4688 30.3359C19.125 30.8958 16.8203 31.0977 14.5547 30.9414C10.5443 30.6289 7.1849 29.0599 4.47656 26.2344C1.76823 23.4089 0.641927 19.9193 1.09766 15.7656C1.60547 11.2344 3.2526 7.69922 6.03906 5.16016C8.83854 2.62109 12.3672 1.24089 16.625 1.01953C19.4375 0.889323 21.9896 1.46224 24.2812 2.73828C26.5859 4.01432 27.7643 6.31901 27.8164 9.65234C27.8685 10.1602 27.5495 10.5898 26.8594 10.9414C26.1693 11.2799 25.349 11.5534 24.3984 11.7617C23.4609 11.957 22.5299 12.0872 21.6055 12.1523C20.681 12.2174 20.0169 12.2174 19.6133 12.1523C19.0534 12.0742 18.7799 11.8529 18.793 11.4883C18.819 11.1237 18.6953 10.9219 18.4219 10.8828ZM60.9805 18.168C60.3034 22.2695 58.3112 25.5768 55.0039 28.0898C51.7096 30.6029 47.875 31.4948 43.5 30.7656C39.2812 30.0625 35.9609 28.0508 33.5391 24.7305C31.1172 21.4102 30.2318 17.7318 30.8828 13.6953C31.4948 9.94531 33.3047 6.80078 36.3125 4.26172C39.3333 1.70964 42.8424 0.609375 46.8398 0.960938C51.6576 1.3776 55.401 3.20703 58.0703 6.44922C60.7526 9.69141 61.7227 13.5977 60.9805 18.168ZM49.7695 16.5078C49.9518 15.388 49.737 14.4375 49.125 13.6562C48.526 12.862 47.6471 12.3672 46.4883 12.1719C45.3945 11.9896 44.431 12.2305 43.5977 12.8945C42.7643 13.5456 42.2695 14.3724 42.1133 15.375C41.9049 16.5859 42.2435 17.6602 43.1289 18.5977C44.0143 19.5221 45.1081 19.9062 46.4102 19.75C47.3086 19.6589 48.0573 19.3073 48.6562 18.6953C49.2552 18.0833 49.6263 17.3542 49.7695 16.5078ZM75.0625 2.19141C75.1276 2.80339 75.1732 3.94271 75.1992 5.60938C75.2383 7.27604 75.2708 9.00781 75.2969 10.8047C75.3229 12.6016 75.349 14.2292 75.375 15.6875C75.4141 17.1328 75.4661 17.9466 75.5312 18.1289C75.6224 18.4284 76.0521 18.5977 76.8203 18.6367C77.6016 18.6628 78.4674 18.6497 79.418 18.5977C80.3815 18.5456 81.306 18.4935 82.1914 18.4414C83.0768 18.3763 83.6823 18.3958 84.0078 18.5C84.4766 18.6562 84.8542 19.3398 85.1406 20.5508C85.4401 21.7487 85.6289 23.0508 85.707 24.457C85.7982 25.8503 85.7656 27.1393 85.6094 28.3242C85.4531 29.4961 85.1536 30.1341 84.7109 30.2383C84.0469 30.4076 82.7188 30.5703 80.7266 30.7266C78.7474 30.8698 76.651 30.9544 74.4375 30.9805C72.224 31.0065 70.1732 30.9414 68.2852 30.7852C66.3971 30.6289 65.2318 30.3164 64.7891 29.8477C64.3464 29.3789 64.0013 27.862 63.7539 25.2969C63.5195 22.7318 63.3568 19.9128 63.2656 16.8398C63.1875 13.7669 63.1549 10.8438 63.168 8.07031C63.194 5.29688 63.2591 3.46094 63.3633 2.5625C63.4154 2.02865 64.0469 1.63802 65.2578 1.39062C66.4688 1.14323 67.7904 1.01953 69.2227 1.01953C70.6549 1.00651 71.9701 1.10417 73.168 1.3125C74.3789 1.52083 75.0104 1.8138 75.0625 2.19141ZM112.074 22.2109C110.629 25.6094 108.35 27.9401 105.238 29.2031C102.126 30.4531 98.8516 31.0521 95.4141 31C94.2422 30.974 93.1094 30.8958 92.0156 30.7656C90.9349 30.6224 90.1536 30.4466 89.6719 30.2383C88.9167 29.9258 88.3112 28.3763 87.8555 25.5898C87.3997 22.7904 87.1263 19.7305 87.0352 16.4102C86.944 13.0898 87.0352 9.9974 87.3086 7.13281C87.582 4.26823 88.0898 2.60807 88.832 2.15234C89.5742 1.68359 90.707 1.33854 92.2305 1.11719C94.6654 0.778646 97.2956 0.811198 100.121 1.21484C102.96 1.61849 105.362 2.60156 107.328 4.16406C109.906 6.2474 111.664 9.01432 112.602 12.4648C113.552 15.9023 113.376 19.151 112.074 22.2109ZM97.3086 13.4609C97.0872 14.1771 97.0352 15.2318 97.1523 16.625C97.2826 18.0052 97.5755 18.819 98.0312 19.0664C98.2396 19.1966 98.6562 19.2487 99.2812 19.2227C100.297 19.1966 101.156 18.9688 101.859 18.5391C102.562 18.0964 102.953 17.4453 103.031 16.5859C103.122 15.5312 102.738 14.6328 101.879 13.8906C101.033 13.1484 100.141 12.7318 99.2031 12.6406C98.8255 12.6146 98.4414 12.6471 98.0508 12.7383C97.6732 12.8164 97.4258 13.0573 97.3086 13.4609Z"/>
</mask>
<path d="M18.4219 10.8828C17.237 10.8177 16.1888 10.9414 15.2773 11.2539C14.0143 11.7096 13.0964 12.4388 12.5234 13.4414C11.9505 14.444 11.7292 15.4661 11.8594 16.5078C11.9896 17.5365 12.4714 18.4609 13.3047 19.2812C14.138 20.0885 15.3359 20.5312 16.8984 20.6094C18.0312 20.6224 18.6628 20.2643 18.793 19.5352C18.9232 18.793 19.0404 18.0508 19.1445 17.3086C19.0924 16.8138 19.5742 16.3906 20.5898 16.0391C21.6055 15.6875 22.7383 15.4531 23.9883 15.3359C25.2513 15.2188 26.4232 15.2448 27.5039 15.4141C28.5977 15.5703 29.1836 15.9089 29.2617 16.4297C29.3919 17.4062 29.4896 18.6497 29.5547 20.1602C29.6328 21.6576 29.6654 23.1354 29.6523 24.5938C29.6393 26.0521 29.5742 27.3411 29.457 28.4609C29.3529 29.5807 29.1901 30.2383 28.9688 30.4336C28.7604 30.707 27.7122 30.8698 25.8242 30.9219C23.9492 30.974 22.6146 30.8828 21.8203 30.6484C21.7031 30.6354 21.5859 30.5312 21.4688 30.3359C19.125 30.8958 16.8203 31.0977 14.5547 30.9414C10.5443 30.6289 7.1849 29.0599 4.47656 26.2344C1.76823 23.4089 0.641927 19.9193 1.09766 15.7656C1.60547 11.2344 3.2526 7.69922 6.03906 5.16016C8.83854 2.62109 12.3672 1.24089 16.625 1.01953C19.4375 0.889323 21.9896 1.46224 24.2812 2.73828C26.5859 4.01432 27.7643 6.31901 27.8164 9.65234C27.8685 10.1602 27.5495 10.5898 26.8594 10.9414C26.1693 11.2799 25.349 11.5534 24.3984 11.7617C23.4609 11.957 22.5299 12.0872 21.6055 12.1523C20.681 12.2174 20.0169 12.2174 19.6133 12.1523C19.0534 12.0742 18.7799 11.8529 18.793 11.4883C18.819 11.1237 18.6953 10.9219 18.4219 10.8828ZM60.9805 18.168C60.3034 22.2695 58.3112 25.5768 55.0039 28.0898C51.7096 30.6029 47.875 31.4948 43.5 30.7656C39.2812 30.0625 35.9609 28.0508 33.5391 24.7305C31.1172 21.4102 30.2318 17.7318 30.8828 13.6953C31.4948 9.94531 33.3047 6.80078 36.3125 4.26172C39.3333 1.70964 42.8424 0.609375 46.8398 0.960938C51.6576 1.3776 55.401 3.20703 58.0703 6.44922C60.7526 9.69141 61.7227 13.5977 60.9805 18.168ZM49.7695 16.5078C49.9518 15.388 49.737 14.4375 49.125 13.6562C48.526 12.862 47.6471 12.3672 46.4883 12.1719C45.3945 11.9896 44.431 12.2305 43.5977 12.8945C42.7643 13.5456 42.2695 14.3724 42.1133 15.375C41.9049 16.5859 42.2435 17.6602 43.1289 18.5977C44.0143 19.5221 45.1081 19.9062 46.4102 19.75C47.3086 19.6589 48.0573 19.3073 48.6562 18.6953C49.2552 18.0833 49.6263 17.3542 49.7695 16.5078ZM75.0625 2.19141C75.1276 2.80339 75.1732 3.94271 75.1992 5.60938C75.2383 7.27604 75.2708 9.00781 75.2969 10.8047C75.3229 12.6016 75.349 14.2292 75.375 15.6875C75.4141 17.1328 75.4661 17.9466 75.5312 18.1289C75.6224 18.4284 76.0521 18.5977 76.8203 18.6367C77.6016 18.6628 78.4674 18.6497 79.418 18.5977C80.3815 18.5456 81.306 18.4935 82.1914 18.4414C83.0768 18.3763 83.6823 18.3958 84.0078 18.5C84.4766 18.6562 84.8542 19.3398 85.1406 20.5508C85.4401 21.7487 85.6289 23.0508 85.707 24.457C85.7982 25.8503 85.7656 27.1393 85.6094 28.3242C85.4531 29.4961 85.1536 30.1341 84.7109 30.2383C84.0469 30.4076 82.7188 30.5703 80.7266 30.7266C78.7474 30.8698 76.651 30.9544 74.4375 30.9805C72.224 31.0065 70.1732 30.9414 68.2852 30.7852C66.3971 30.6289 65.2318 30.3164 64.7891 29.8477C64.3464 29.3789 64.0013 27.862 63.7539 25.2969C63.5195 22.7318 63.3568 19.9128 63.2656 16.8398C63.1875 13.7669 63.1549 10.8438 63.168 8.07031C63.194 5.29688 63.2591 3.46094 63.3633 2.5625C63.4154 2.02865 64.0469 1.63802 65.2578 1.39062C66.4688 1.14323 67.7904 1.01953 69.2227 1.01953C70.6549 1.00651 71.9701 1.10417 73.168 1.3125C74.3789 1.52083 75.0104 1.8138 75.0625 2.19141ZM112.074 22.2109C110.629 25.6094 108.35 27.9401 105.238 29.2031C102.126 30.4531 98.8516 31.0521 95.4141 31C94.2422 30.974 93.1094 30.8958 92.0156 30.7656C90.9349 30.6224 90.1536 30.4466 89.6719 30.2383C88.9167 29.9258 88.3112 28.3763 87.8555 25.5898C87.3997 22.7904 87.1263 19.7305 87.0352 16.4102C86.944 13.0898 87.0352 9.9974 87.3086 7.13281C87.582 4.26823 88.0898 2.60807 88.832 2.15234C89.5742 1.68359 90.707 1.33854 92.2305 1.11719C94.6654 0.778646 97.2956 0.811198 100.121 1.21484C102.96 1.61849 105.362 2.60156 107.328 4.16406C109.906 6.2474 111.664 9.01432 112.602 12.4648C113.552 15.9023 113.376 19.151 112.074 22.2109ZM97.3086 13.4609C97.0872 14.1771 97.0352 15.2318 97.1523 16.625C97.2826 18.0052 97.5755 18.819 98.0312 19.0664C98.2396 19.1966 98.6562 19.2487 99.2812 19.2227C100.297 19.1966 101.156 18.9688 101.859 18.5391C102.562 18.0964 102.953 17.4453 103.031 16.5859C103.122 15.5312 102.738 14.6328 101.879 13.8906C101.033 13.1484 100.141 12.7318 99.2031 12.6406C98.8255 12.6146 98.4414 12.6471 98.0508 12.7383C97.6732 12.8164 97.4258 13.0573 97.3086 13.4609Z" fill="white"/>
<path d="M18.4219 10.8828L18.7047 8.90291L18.6185 8.8906L18.5316 8.88582L18.4219 10.8828ZM15.2773 11.2539L14.6287 9.36201L14.6136 9.3672L14.5985 9.37263L15.2773 11.2539ZM11.8594 16.5078L9.87482 16.7559L9.87521 16.759L11.8594 16.5078ZM13.3047 19.2812L11.9017 20.7066L11.9074 20.7122L11.9131 20.7177L13.3047 19.2812ZM16.8984 20.6094L16.7986 22.6069L16.837 22.6088L16.8755 22.6092L16.8984 20.6094ZM18.793 19.5352L20.7618 19.8867L20.7629 19.8808L18.793 19.5352ZM19.1445 17.3086L21.1251 17.5866L21.1592 17.3434L21.1335 17.0992L19.1445 17.3086ZM23.9883 15.3359L23.8035 13.3445L23.8016 13.3447L23.9883 15.3359ZM27.5039 15.4141L27.1944 17.39L27.2077 17.3921L27.2211 17.394L27.5039 15.4141ZM29.2617 16.4297L31.2442 16.1654L31.242 16.1492L31.2396 16.133L29.2617 16.4297ZM29.5547 20.1602L27.5565 20.2463L27.5569 20.2553L27.5574 20.2644L29.5547 20.1602ZM29.457 28.4609L27.4679 28.2528L27.4667 28.2642L27.4656 28.2757L29.457 28.4609ZM28.9688 30.4336L27.6455 28.9339L27.4975 29.0645L27.3779 29.2215L28.9688 30.4336ZM25.8242 30.9219L25.7691 28.9226L25.7687 28.9226L25.8242 30.9219ZM21.8203 30.6484L22.3863 28.7302L22.2168 28.6802L22.0412 28.6607L21.8203 30.6484ZM21.4688 30.3359L23.1837 29.3069L22.4296 28.0501L21.004 28.3907L21.4688 30.3359ZM14.5547 30.9414L14.3993 32.9354L14.4082 32.9361L14.4171 32.9367L14.5547 30.9414ZM1.09766 15.7656L-0.889907 15.5429L-0.890413 15.5475L1.09766 15.7656ZM6.03906 5.16016L4.69543 3.67871L4.692 3.68184L6.03906 5.16016ZM16.625 1.01953L16.5325 -0.978361L16.5212 -0.977771L16.625 1.01953ZM24.2812 2.73828L23.3083 4.48566L23.3125 4.48799L24.2812 2.73828ZM27.8164 9.65234L25.8167 9.68359L25.818 9.77022L25.8268 9.8564L27.8164 9.65234ZM26.8594 10.9414L27.7402 12.737L27.7538 12.7303L27.7672 12.7235L26.8594 10.9414ZM24.3984 11.7617L24.8063 13.7197L24.8165 13.7176L24.8266 13.7153L24.3984 11.7617ZM19.6133 12.1523L19.9317 10.1779L19.9107 10.1745L19.8897 10.1715L19.6133 12.1523ZM18.793 11.4883L16.7981 11.3458L16.7955 11.3813L16.7942 11.4169L18.793 11.4883ZM18.5316 8.88582C17.1472 8.80976 15.8331 8.94907 14.6287 9.36201L15.926 13.1458C16.5445 12.9337 17.3267 12.8257 18.3122 12.8798L18.5316 8.88582ZM14.5985 9.37263C12.9653 9.96192 11.6332 10.9682 10.787 12.4491L14.2599 14.4337C14.5595 13.9094 15.0633 13.4573 15.9562 13.1352L14.5985 9.37263ZM10.787 12.4491C10.022 13.7878 9.68553 15.2416 9.87482 16.7559L13.8439 16.2597C13.7728 15.6907 13.879 15.1002 14.2599 14.4337L10.787 12.4491ZM9.87521 16.759C10.069 18.2897 10.7914 19.6136 11.9017 20.7066L14.7077 17.8559C14.1513 17.3082 13.9102 16.7832 13.8435 16.2567L9.87521 16.759ZM11.9131 20.7177C13.2003 21.9647 14.922 22.5131 16.7986 22.6069L16.9983 18.6119C15.7499 18.5494 15.0757 18.2124 14.6963 17.8448L11.9131 20.7177ZM16.8755 22.6092C17.6147 22.6177 18.4586 22.5154 19.2082 22.0904C20.0536 21.611 20.5946 20.8234 20.7618 19.8867L16.8241 19.1836C16.8367 19.113 16.8733 18.9934 16.9633 18.8649C17.0541 18.7353 17.1592 18.6539 17.2352 18.6108C17.3034 18.5721 17.3275 18.5755 17.2702 18.5867C17.213 18.5979 17.1016 18.6116 16.9214 18.6095L16.8755 22.6092ZM20.7629 19.8808C20.897 19.1162 21.0178 18.3515 21.1251 17.5866L17.1639 17.0306C17.063 17.7501 16.9493 18.4697 16.8231 19.1896L20.7629 19.8808ZM21.1335 17.0992C21.1594 17.3446 21.1145 17.5903 21.0169 17.7988C20.9271 17.9907 20.8204 18.0931 20.7867 18.1228C20.7539 18.1516 20.762 18.1366 20.8473 18.0925C20.9295 18.0499 21.0577 17.9936 21.2441 17.929L19.9356 14.1491C19.3261 14.3601 18.6708 14.6573 18.1469 15.1175C17.5747 15.6201 17.0424 16.4428 17.1555 17.518L21.1335 17.0992ZM21.2441 17.929C22.0857 17.6377 23.0583 17.4319 24.175 17.3272L23.8016 13.3447C22.4182 13.4744 21.1253 13.7373 19.9356 14.1491L21.2441 17.929ZM24.1731 17.3274C25.2969 17.2231 26.3007 17.25 27.1944 17.39L27.8134 13.4382C26.5456 13.2396 25.2057 13.2144 23.8035 13.3445L24.1731 17.3274ZM27.2211 17.394C27.4225 17.4227 27.5667 17.4553 27.6639 17.4839C27.7637 17.5133 27.7871 17.5307 27.7631 17.5169C27.7379 17.5023 27.6353 17.4384 27.5253 17.2961C27.4065 17.1423 27.3165 16.9443 27.2838 16.7264L31.2396 16.133C31.0855 15.1058 30.4212 14.433 29.7642 14.0534C29.154 13.7009 28.4467 13.5284 27.7867 13.4342L27.2211 17.394ZM27.2793 16.694C27.3986 17.5891 27.4928 18.7676 27.5565 20.2463L31.5528 20.074C31.4864 18.5318 31.3852 17.2234 31.2442 16.1654L27.2793 16.694ZM27.5574 20.2644C27.6335 21.7222 27.6651 23.1594 27.6524 24.5759L31.6523 24.6116C31.6657 23.1114 31.6322 21.5929 31.552 20.056L27.5574 20.2644ZM27.6524 24.5759C27.6398 25.9881 27.5769 27.2115 27.4679 28.2528L31.4462 28.6691C31.5716 27.4708 31.6388 26.1161 31.6523 24.6116L27.6524 24.5759ZM27.4656 28.2757C27.4176 28.7918 27.3623 29.124 27.3154 29.3134C27.292 29.4079 27.2822 29.4191 27.3002 29.3791C27.3103 29.3566 27.3361 29.3027 27.3836 29.2313C27.43 29.1614 27.5134 29.0505 27.6455 28.9339L30.292 31.9333C30.6487 31.6185 30.8433 31.2527 30.9474 31.0217C31.0614 30.7686 31.1403 30.5088 31.1982 30.2745C31.3141 29.8063 31.3923 29.2499 31.4484 28.6462L27.4656 28.2757ZM27.3779 29.2215C27.5598 28.9827 27.7517 28.8573 27.8381 28.8066C27.9321 28.7513 27.9956 28.7297 27.9991 28.7285C28.0019 28.7276 27.9239 28.7527 27.7195 28.7844C27.3191 28.8466 26.6829 28.8974 25.7691 28.9226L25.8794 32.9211C26.8536 32.8942 27.6855 32.8376 28.3332 32.7371C28.653 32.6874 28.994 32.6173 29.3109 32.5073C29.5481 32.425 30.1335 32.2049 30.5596 31.6457L27.3779 29.2215ZM25.7687 28.9226C23.9062 28.9744 22.8508 28.8673 22.3863 28.7302L21.2543 32.5667C22.3783 32.8984 23.9923 32.9735 25.8798 32.9211L25.7687 28.9226ZM22.0412 28.6607C22.5102 28.7128 22.8232 28.9324 22.9733 29.0657C23.118 29.1944 23.1808 29.302 23.1837 29.3069L19.7538 31.3649C19.9164 31.636 20.4746 32.5112 21.5994 32.6362L22.0412 28.6607ZM21.004 28.3907C18.8453 28.9064 16.7438 29.0876 14.6923 28.9461L14.4171 32.9367C16.8969 33.1077 19.4047 32.8853 21.9335 32.2812L21.004 28.3907ZM14.7101 28.9475C11.1745 28.672 8.27851 27.3106 5.9204 24.8504L3.03272 27.6183C6.09128 30.8092 9.91403 32.5859 14.3993 32.9354L14.7101 28.9475ZM5.9204 24.8504C3.65214 22.484 2.68956 19.5945 3.08573 15.9838L-0.890413 15.5475C-1.4057 20.244 -0.115683 24.3337 3.03272 27.6183L5.9204 24.8504ZM3.08521 15.9884C3.55083 11.8337 5.03005 8.78537 7.38613 6.63847L4.692 3.68184C1.47516 6.61307 -0.339889 10.6351 -0.889901 15.5429L3.08521 15.9884ZM7.38269 6.64159C9.79709 4.4518 12.8689 3.2175 16.7288 3.01683L16.5212 -0.977771C11.8654 -0.735731 7.88 0.790392 4.69543 3.67872L7.38269 6.64159ZM16.7175 3.01739C19.1868 2.90307 21.3655 3.4039 23.3083 4.48566L25.2542 0.990904C22.6136 -0.479421 19.6882 -1.12442 16.5325 -0.978329L16.7175 3.01739ZM23.3125 4.48799C24.8188 5.32202 25.7723 6.84563 25.8167 9.68359L29.8162 9.6211C29.7563 5.79239 28.353 2.70663 25.25 0.98857L23.3125 4.48799ZM25.8268 9.8564C25.8152 9.74301 25.8229 9.60929 25.8623 9.47088C25.9013 9.33408 25.9603 9.23074 26.0104 9.16327C26.0985 9.04463 26.1356 9.06554 25.9515 9.15933L27.7672 12.7235C28.7507 12.2225 29.9837 11.1807 29.806 9.44829L25.8268 9.8564ZM25.9785 9.14583C25.4646 9.39795 24.8034 9.62547 23.9702 9.80809L24.8266 13.7153C25.8945 13.4813 26.874 13.1619 27.7402 12.737L25.9785 9.14583ZM23.9905 9.80376C23.1383 9.9813 22.2966 10.0987 21.465 10.1573L21.746 14.1474C22.7632 14.0758 23.7836 13.9328 24.8063 13.7197L23.9905 9.80376ZM21.465 10.1573C20.5506 10.2217 20.088 10.2031 19.9317 10.1779L19.2948 14.1268C19.9458 14.2318 20.8114 14.2132 21.746 14.1474L21.465 10.1573ZM19.8897 10.1715C19.7723 10.1552 19.9782 10.1559 20.2467 10.3732C20.3997 10.4971 20.5565 10.6796 20.6645 10.9226C20.7714 11.1631 20.7978 11.3891 20.7917 11.5597L16.7942 11.4169C16.7663 12.2001 17.0838 12.9592 17.7299 13.4822C18.2718 13.9209 18.8944 14.0714 19.3369 14.1332L19.8897 10.1715ZM20.7879 11.6308C20.8155 11.2438 20.7945 10.6213 20.4249 10.0184C19.9982 9.32218 19.3215 8.99102 18.7047 8.90291L18.139 12.8627C17.7957 12.8137 17.3175 12.603 17.0145 12.1086C16.7687 11.7075 16.7965 11.3682 16.7981 11.3458L20.7879 11.6308ZM60.9805 18.168L62.9538 18.4937L62.9546 18.4886L60.9805 18.168ZM55.0039 28.0898L53.7939 26.4974L53.7909 26.4997L55.0039 28.0898ZM30.8828 13.6953L28.9089 13.3732L28.9083 13.3768L30.8828 13.6953ZM36.3125 4.26172L37.6026 5.79L37.6032 5.78949L36.3125 4.26172ZM46.8398 0.960938L46.6646 2.95325L46.6675 2.9535L46.8398 0.960938ZM58.0703 6.44922L56.5263 7.72042L56.5293 7.7241L58.0703 6.44922ZM49.7695 16.5078L51.7415 16.8415L51.7435 16.8292L49.7695 16.5078ZM49.125 13.6562L47.5281 14.8604L47.5392 14.8751L47.5505 14.8896L49.125 13.6562ZM46.4883 12.1719L46.8207 10.1997L46.8171 10.1991L46.4883 12.1719ZM43.5977 12.8945L44.8289 14.4706L44.8365 14.4647L44.8441 14.4587L43.5977 12.8945ZM42.1133 15.375L44.0843 15.7141L44.087 15.6986L44.0894 15.683L42.1133 15.375ZM43.1289 18.5977L41.6748 19.9709L41.6845 19.981L43.1289 18.5977ZM46.4102 19.75L46.2083 17.7602L46.1901 17.7621L46.1719 17.7642L46.4102 19.75ZM59.0072 17.8422C58.4133 21.44 56.6939 24.2939 53.7939 26.4974L56.2139 29.6823C59.9285 26.8598 62.1935 23.0991 62.9538 18.4937L59.0072 17.8422ZM53.7909 26.4997C50.9691 28.6523 47.702 29.4384 43.8288 28.7928L43.1712 32.7384C48.048 33.5512 52.4502 32.5535 56.2169 29.68L53.7909 26.4997ZM43.8288 28.7928C40.1031 28.1719 37.2546 26.4304 35.1549 23.5519L31.9232 25.9091C34.6673 29.6711 38.4594 31.9531 43.1712 32.7384L43.8288 28.7928ZM35.1549 23.5519C33.0457 20.6602 32.2917 17.5203 32.8573 14.0138L28.9083 13.3768C28.1718 17.9433 29.1887 22.1601 31.9232 25.9091L35.1549 23.5519ZM32.8567 14.0174C33.3889 10.7563 34.9449 8.03347 37.6026 5.79L35.0224 2.73344C31.6644 5.56809 29.6007 9.13432 28.9089 13.3732L32.8567 14.0174ZM37.6032 5.78949C40.2101 3.58708 43.1895 2.64761 46.6646 2.95325L47.0151 -1.03137C42.4954 -1.42886 38.4565 -0.167811 35.0218 2.73395L37.6032 5.78949ZM46.6675 2.9535C51.0378 3.33147 54.2512 4.95699 56.5263 7.72042L59.6144 5.17802C56.5509 1.45707 52.2773 -0.576266 47.0122 -1.03162L46.6675 2.9535ZM56.5293 7.7241C58.8044 10.4741 59.6665 13.7823 59.0063 17.8474L62.9546 18.4886C63.7788 13.413 62.7008 8.90875 59.6113 5.17434L56.5293 7.7241ZM51.7435 16.8292C52.0014 15.245 51.7066 13.7087 50.6995 12.4229L47.5505 14.8896C47.7673 15.1663 47.9022 15.5311 47.7955 16.1865L51.7435 16.8292ZM50.7219 12.4521C49.7603 11.1769 48.3862 10.4635 46.8207 10.1997L46.1559 14.1441C46.9081 14.2708 47.2918 14.547 47.5281 14.8604L50.7219 12.4521ZM46.8171 10.1991C45.1898 9.92788 43.648 10.297 42.3512 11.3304L44.8441 14.4587C45.214 14.1639 45.5992 14.0513 46.1595 14.1447L46.8171 10.1991ZM42.3664 11.3185C41.1513 12.2677 40.3752 13.5396 40.1371 15.067L44.0894 15.683C44.1639 15.2052 44.3773 14.8234 44.8289 14.4706L42.3664 11.3185ZM40.1422 15.0359C39.8212 16.9022 40.3823 18.6023 41.6749 19.9709L44.5829 17.2244C44.1047 16.7181 43.9887 16.2697 44.0843 15.7141L40.1422 15.0359ZM41.6845 19.981C43.0173 21.3726 44.7399 21.9648 46.6484 21.7358L46.1719 17.7642C45.4762 17.8477 45.0114 17.6717 44.5733 17.2143L41.6845 19.981ZM46.612 21.7398C47.9486 21.6042 49.1404 21.06 50.0856 20.0942L47.2269 17.2964C46.9742 17.5546 46.6685 17.7135 46.2083 17.7602L46.612 21.7398ZM50.0856 20.0942C50.9705 19.1901 51.5304 18.0889 51.7415 16.8415L47.7976 16.1741C47.7222 16.6194 47.5399 16.9766 47.2269 17.2964L50.0856 20.0942ZM75.0625 2.19141L77.0513 1.97983L77.048 1.94892L77.0437 1.91813L75.0625 2.19141ZM75.1992 5.60938L73.1995 5.64062L73.1996 5.64843L73.1998 5.65624L75.1992 5.60938ZM75.375 15.6875L73.3753 15.7232L73.3755 15.7324L73.3757 15.7415L75.375 15.6875ZM75.5312 18.1289L77.4446 17.5466L77.4307 17.5011L77.4147 17.4562L75.5312 18.1289ZM76.8203 18.6367L76.7188 20.6341L76.7362 20.635L76.7537 20.6356L76.8203 18.6367ZM79.418 18.5977L79.31 16.6006L79.3085 16.6007L79.418 18.5977ZM82.1914 18.4414L82.3089 20.438L82.3235 20.4371L82.3381 20.436L82.1914 18.4414ZM84.0078 18.5L84.6403 16.6026L84.6288 16.5988L84.6174 16.5952L84.0078 18.5ZM85.1406 20.5508L83.1943 21.0112L83.1973 21.0235L83.2003 21.0359L85.1406 20.5508ZM85.707 24.457L83.7101 24.568L83.7107 24.5778L83.7113 24.5876L85.707 24.457ZM85.6094 28.3242L87.5918 28.5885L87.5922 28.5857L85.6094 28.3242ZM84.7109 30.2383L84.2529 28.2914L84.2349 28.2957L84.2169 28.3003L84.7109 30.2383ZM80.7266 30.7266L80.8709 32.7214L80.8829 32.7204L80.7266 30.7266ZM74.4375 30.9805L74.414 28.9806L74.4375 30.9805ZM68.2852 30.7852L68.1202 32.7783L68.2852 30.7852ZM64.7891 29.8477L63.335 31.2209L64.7891 29.8477ZM63.7539 25.2969L61.7622 25.4789L61.7631 25.4889L63.7539 25.2969ZM63.2656 16.8398L61.2663 16.8907L61.2665 16.8991L63.2656 16.8398ZM63.168 8.07031L61.168 8.05153L61.168 8.06092L63.168 8.07031ZM63.3633 2.5625L65.35 2.79284L65.3521 2.77479L65.3538 2.7567L63.3633 2.5625ZM69.2227 1.01953V3.01953H69.2318L69.2408 3.01945L69.2227 1.01953ZM73.168 1.3125L72.8253 3.28293L72.8289 3.28354L73.168 1.3125ZM73.0737 2.40298C73.1279 2.9125 73.1733 3.96582 73.1995 5.64062L77.199 5.57813C77.1731 3.9196 77.1273 2.69427 77.0513 1.97983L73.0737 2.40298ZM73.1998 5.65624C73.2387 7.31651 73.2711 9.0423 73.2971 10.8337L77.2967 10.7757C77.2705 8.97332 77.2379 7.23558 77.1987 5.56251L73.1998 5.65624ZM73.2971 10.8337C73.3232 12.6323 73.3492 14.2622 73.3753 15.7232L77.3747 15.6518C77.3487 14.1961 77.3227 12.5708 77.2967 10.7757L73.2971 10.8337ZM73.3757 15.7415C73.3955 16.4732 73.4191 17.0663 73.4474 17.5096C73.4615 17.7295 73.478 17.9329 73.4986 18.1075C73.5116 18.2183 73.5455 18.5152 73.6478 18.8016L77.4147 17.4562C77.4412 17.5303 77.4559 17.5875 77.4626 17.6151C77.4701 17.6456 77.4739 17.6663 77.4752 17.6732C77.4774 17.6856 77.4756 17.6775 77.4712 17.6401C77.4624 17.5656 77.4512 17.4411 77.4393 17.2541C77.4156 16.8835 77.3936 16.3472 77.3743 15.6335L73.3757 15.7415ZM73.6179 18.7112C73.9132 19.6815 74.685 20.1428 75.1888 20.3413C75.6952 20.5408 76.2421 20.6099 76.7188 20.6341L76.9219 16.6393C76.6303 16.6245 76.5782 16.5894 76.6549 16.6197C76.7291 16.6489 77.2404 16.8757 77.4446 17.5466L73.6179 18.7112ZM76.7537 20.6356C77.6046 20.664 78.5303 20.6493 79.5274 20.5947L79.3085 16.6007C78.4046 16.6502 77.5985 16.6615 76.8869 16.6378L76.7537 20.6356ZM79.5259 20.5947C80.4924 20.5425 81.42 20.4902 82.3089 20.438L82.074 16.4449C81.192 16.4967 80.2707 16.5486 79.31 16.6006L79.5259 20.5947ZM82.3381 20.436C82.7396 20.4065 83.0369 20.3995 83.2451 20.4062C83.3479 20.4095 83.4131 20.4157 83.4478 20.4203C83.4868 20.4255 83.4627 20.4255 83.3983 20.4048L84.6174 16.5952C83.8751 16.3576 82.9017 16.3838 82.0447 16.4468L82.3381 20.436ZM83.3754 20.3974C83.1462 20.321 83.0017 20.2034 82.9335 20.1357C82.8701 20.0728 82.8627 20.044 82.8919 20.0969C82.9196 20.147 82.9654 20.2435 83.0213 20.403C83.0765 20.5605 83.1352 20.7611 83.1943 21.0112L87.0869 20.0904C86.9235 19.3994 86.7061 18.7292 86.3932 18.1628C86.0964 17.6254 85.5619 16.9098 84.6403 16.6026L83.3754 20.3974ZM83.2003 21.0359C83.4652 22.0954 83.638 23.2707 83.7101 24.568L87.7039 24.3461C87.6198 22.8309 87.415 21.402 87.0809 20.0657L83.2003 21.0359ZM83.7113 24.5876C83.7953 25.8713 83.7631 27.0273 83.6265 28.0627L87.5922 28.5857C87.7682 27.2513 87.8011 25.8292 87.7028 24.3265L83.7113 24.5876ZM83.6269 28.0599C83.5954 28.2963 83.5601 28.4786 83.5259 28.6147C83.4908 28.7539 83.4633 28.8187 83.4571 28.8318C83.449 28.849 83.4855 28.7623 83.6019 28.6458C83.7308 28.5169 83.9486 28.363 84.2529 28.2914L85.169 32.1851C86.2519 31.9303 86.8133 31.0956 87.078 30.5315C87.3538 29.944 87.5023 29.2597 87.5918 28.5885L83.6269 28.0599ZM84.2169 28.3003C83.7458 28.4203 82.5878 28.5744 80.5702 28.7327L80.8829 32.7204C82.8497 32.5662 84.3479 32.3948 85.2049 32.1763L84.2169 28.3003ZM80.5822 28.7318C78.6475 28.8718 76.5917 28.955 74.414 28.9806L74.461 32.9803C76.7104 32.9539 78.8473 32.8678 80.8709 32.7213L80.5822 28.7318ZM74.414 28.9806C72.2532 29.006 70.2661 28.9423 68.4501 28.792L68.1202 32.7783C70.0803 32.9406 72.1948 33.007 74.461 32.9803L74.414 28.9806ZM68.4501 28.792C67.5662 28.7188 66.9343 28.6148 66.5131 28.5018C66.3049 28.446 66.1857 28.3978 66.1306 28.371C66.069 28.3411 66.1371 28.3622 66.2431 28.4744L63.335 31.2209C63.9489 31.8709 64.8007 32.184 65.4771 32.3653C66.2213 32.5649 67.116 32.6952 68.1202 32.7783L68.4501 28.792ZM66.2431 28.4744C66.3839 28.6235 66.3927 28.7089 66.3344 28.562C66.2866 28.4416 66.2212 28.2347 66.1484 27.9148C66.003 27.2753 65.8647 26.3499 65.7447 25.1049L61.7631 25.4889C61.8905 26.8089 62.0485 27.9246 62.2481 28.802C62.3478 29.2405 62.4671 29.6611 62.6163 30.0371C62.755 30.3866 62.9729 30.8374 63.335 31.2209L66.2431 28.4744ZM65.7456 25.1149C65.5156 22.5975 65.3549 19.8201 65.2647 16.7805L61.2665 16.8991C61.3586 20.0055 61.5235 22.8661 61.7622 25.4789L65.7456 25.1149ZM65.265 16.789C65.1873 13.734 65.155 10.8311 65.1679 8.0797L61.168 8.06092C61.1549 10.8564 61.1877 13.7998 61.2663 16.8907L65.265 16.789ZM65.1679 8.08909C65.1941 5.29608 65.2601 3.5677 65.35 2.79284L61.3766 2.33216C61.2581 3.35418 61.1939 5.29767 61.1681 8.05153L65.1679 8.08909ZM65.3538 2.7567C65.3292 3.00927 65.2328 3.22436 65.1191 3.37807C65.0669 3.44871 65.018 3.49708 64.9844 3.52656C64.9511 3.55576 64.9297 3.56907 64.9281 3.57004C64.9264 3.57108 64.9393 3.56304 64.9713 3.5484C65.0031 3.53386 65.0494 3.51486 65.1127 3.49292C65.2414 3.44835 65.4199 3.39881 65.6581 3.35015L64.8575 -0.568899C64.1536 -0.425098 63.4294 -0.206322 62.8239 0.168237C62.1949 0.557269 61.4805 1.26352 61.3727 2.3683L65.3538 2.7567ZM65.6581 3.35015C66.7185 3.13351 67.9042 3.01953 69.2227 3.01953V-0.980469C67.6766 -0.980469 66.219 -0.847055 64.8575 -0.568899L65.6581 3.35015ZM69.2408 3.01945C70.5729 3.00734 71.7653 3.09858 72.8253 3.28292L73.5107 -0.657924C72.1748 -0.890247 70.737 -0.994318 69.2045 -0.980386L69.2408 3.01945ZM72.8289 3.28354C73.0857 3.32773 73.2879 3.37241 73.4425 3.41446C73.601 3.45761 73.682 3.49061 73.7081 3.50275C73.7445 3.51963 73.6476 3.48259 73.5142 3.35182C73.366 3.20641 73.1428 2.91071 73.0813 2.46468L77.0437 1.91813C76.8688 0.649821 75.827 0.0762709 75.3915 -0.125796C74.8386 -0.382264 74.1755 -0.543551 73.5071 -0.658542L72.8289 3.28354ZM112.074 22.2109L110.234 21.4278L110.234 21.4282L112.074 22.2109ZM105.238 29.2031L105.984 31.059L105.99 31.0563L105.238 29.2031ZM95.4141 31L95.3696 32.9996L95.3838 32.9998L95.4141 31ZM92.0156 30.7656L91.7529 32.7483L91.766 32.75L91.7792 32.7516L92.0156 30.7656ZM89.6719 30.2383L90.4657 28.4026L90.4512 28.3963L90.4366 28.3902L89.6719 30.2383ZM87.8555 25.5898L85.8815 25.9112L85.8817 25.9127L87.8555 25.5898ZM88.832 2.15234L89.8786 3.85669L89.8893 3.85007L89.9 3.84332L88.832 2.15234ZM92.2305 1.11719L91.955 -0.863794L91.9429 -0.862029L92.2305 1.11719ZM100.121 1.21484L99.8382 3.19474L99.8395 3.19492L100.121 1.21484ZM107.328 4.16406L108.585 2.60848L108.579 2.60336L108.572 2.59829L107.328 4.16406ZM112.602 12.4648L110.672 12.9892L110.674 12.9979L112.602 12.4648ZM97.3086 13.4609L99.2194 14.0515L99.2245 14.0351L99.2293 14.0186L97.3086 13.4609ZM97.1523 16.625L95.1594 16.7926L95.1602 16.8027L95.1612 16.8128L97.1523 16.625ZM98.0312 19.0664L99.0912 17.3704L99.0393 17.3379L98.9854 17.3087L98.0312 19.0664ZM99.2812 19.2227L99.23 17.2233L99.214 17.2237L99.198 17.2244L99.2812 19.2227ZM101.859 18.5391L102.902 20.2456L102.914 20.2387L102.925 20.2315L101.859 18.5391ZM103.031 16.5859L105.023 16.767L105.024 16.7581L103.031 16.5859ZM101.879 13.8906L100.56 15.3943L100.566 15.3993L100.572 15.4043L101.879 13.8906ZM99.2031 12.6406L99.3967 10.65L99.3687 10.6473L99.3407 10.6454L99.2031 12.6406ZM98.0508 12.7383L98.456 14.6968L98.4807 14.6917L98.5052 14.686L98.0508 12.7383ZM110.234 21.4282C108.973 24.3932 107.057 26.3065 104.486 27.3499L105.99 31.0563C109.644 29.5737 112.285 26.8256 113.915 22.9937L110.234 21.4282ZM104.493 27.3472C101.634 28.4957 98.6231 29.0484 95.4444 29.0002L95.3838 32.9998C99.08 33.0558 102.619 32.4105 105.984 31.059L104.493 27.3472ZM95.4585 29.0005C94.3467 28.9758 93.2781 28.9018 92.2521 28.7796L91.7792 32.7516C92.9406 32.8899 94.1376 32.9721 95.3696 32.9995L95.4585 29.0005ZM92.2784 28.783C91.2281 28.6438 90.6789 28.4948 90.4657 28.4026L88.8781 32.074C89.6284 32.3984 90.6416 32.601 91.7529 32.7483L92.2784 28.783ZM90.4366 28.3902C90.699 28.4988 90.7865 28.6442 90.7483 28.5919C90.7141 28.5451 90.6279 28.4048 90.5142 28.1139C90.2858 27.5292 90.0478 26.6032 89.8292 25.267L85.8817 25.9127C86.1189 27.3629 86.4115 28.6049 86.7885 29.5697C87.1119 30.3973 87.7062 31.5894 88.9072 32.0863L90.4366 28.3902ZM89.8295 25.2685C89.3903 22.5706 89.1235 19.601 89.0344 16.3553L85.0359 16.465C85.1291 19.86 85.4092 23.0102 85.8815 25.9112L89.8295 25.2685ZM89.0344 16.3553C88.9452 13.1045 89.035 10.0948 89.2995 7.32286L85.3176 6.94277C85.0354 9.90002 84.9429 13.0752 85.0359 16.465L89.0344 16.3553ZM89.2995 7.32286C89.4306 5.94949 89.6097 4.96945 89.8071 4.32427C90.0394 3.56467 90.1755 3.67435 89.8786 3.85669L87.7855 0.448001C86.7464 1.08607 86.2575 2.25369 85.982 3.15425C85.6715 4.16922 85.46 5.45155 85.3176 6.94277L89.2995 7.32286ZM89.9 3.84332C90.2895 3.59731 91.0939 3.30333 92.518 3.0964L91.9429 -0.862029C90.3202 -0.62625 88.8589 -0.230122 87.764 0.461366L89.9 3.84332ZM92.5059 3.09813C94.7286 2.78909 97.1688 2.81339 99.8382 3.19474L100.404 -0.765055C97.4223 -1.191 94.6021 -1.2318 91.955 -0.863757L92.5059 3.09813ZM99.8395 3.19492C102.377 3.55572 104.434 4.41841 106.084 5.72984L108.572 2.59829C106.29 0.784712 103.543 -0.318745 100.403 -0.765236L99.8395 3.19492ZM106.071 5.71965C108.296 7.5174 109.835 9.9109 110.672 12.9892L114.532 11.9405C113.493 8.11775 111.517 4.97739 108.585 2.60848L106.071 5.71965ZM110.674 12.9979C111.513 16.0332 111.346 18.8153 110.234 21.4278L113.915 22.994C115.407 19.4867 115.591 15.7714 114.529 11.9318L110.674 12.9979ZM95.3978 12.8703C95.0608 13.9607 95.036 15.3261 95.1594 16.7926L99.1453 16.4574C99.0343 15.1374 99.1137 14.3935 99.2194 14.0515L95.3978 12.8703ZM95.1612 16.8128C95.2338 17.5827 95.361 18.3176 95.588 18.9479C95.7974 19.5298 96.2096 20.3532 97.0771 20.8241L98.9854 17.3087C99.2011 17.4258 99.3142 17.565 99.3542 17.6217C99.3918 17.675 99.3827 17.6798 99.3515 17.5931C99.2854 17.4096 99.2011 17.0475 99.1435 16.4372L95.1612 16.8128ZM96.9713 20.7624C97.4379 21.0541 97.9318 21.1477 98.2519 21.1877C98.6093 21.2324 98.9894 21.2366 99.3645 21.2209L99.198 17.2244C99.0777 17.2294 98.9796 17.2301 98.9016 17.2282C98.8225 17.2262 98.7731 17.2217 98.7481 17.2186C98.7209 17.2152 98.7383 17.2153 98.7866 17.2294C98.8121 17.2369 98.8517 17.2498 98.9014 17.2709C98.951 17.292 99.0165 17.3237 99.0912 17.3704L96.9713 20.7624ZM99.3325 21.222C100.618 21.189 101.838 20.8962 102.902 20.2456L100.816 16.8325C100.475 17.0413 99.9761 17.2042 99.23 17.2233L99.3325 21.222ZM102.925 20.2315C104.179 19.4421 104.891 18.219 105.023 16.767L101.039 16.4049C101.015 16.6716 100.946 16.7506 100.794 16.8466L102.925 20.2315ZM105.024 16.7581C105.175 15.0116 104.49 13.503 103.186 12.377L100.572 15.4043C100.987 15.7627 101.07 16.0509 101.039 16.4137L105.024 16.7581ZM103.198 12.3869C102.099 11.4238 100.827 10.7891 99.3967 10.65L99.0096 14.6312C99.4541 14.6745 99.9658 14.873 100.56 15.3943L103.198 12.3869ZM99.3407 10.6454C98.753 10.6048 98.1692 10.6569 97.5963 10.7906L98.5052 14.686C98.7136 14.6374 98.8981 14.6243 99.0655 14.6359L99.3407 10.6454ZM97.6456 10.7798C97.1284 10.8868 96.6148 11.1278 96.1868 11.5446C95.7666 11.9538 95.5221 12.441 95.3879 12.9033L99.2293 14.0186C99.2123 14.0772 99.1501 14.2422 98.9773 14.4105C98.7966 14.5863 98.5956 14.6679 98.456 14.6968L97.6456 10.7798Z" fill="#183282" mask="url(#path-1-outside-1_217_2137)"/>
</svg>
