<svg width="40" height="40" viewBox="0 0 40 40" fill="none" xmlns="http://www.w3.org/2000/svg">
<path d="M10.6402 39.8614C9.1228 39.8445 7.61965 39.5662 6.19675 39.0387C5.15769 38.6547 4.2176 38.0432 3.44521 37.2491C2.64897 36.4783 2.03663 35.538 1.65368 34.498C1.12666 33.0751 0.848747 31.5721 0.832139 30.0549C0.7156 27.5326 0.692139 26.7761 0.692139 20.3849C0.692139 13.9938 0.717908 13.2399 0.830985 10.7157C0.849609 9.19906 1.12786 7.69683 1.65368 6.27414C2.0385 5.23491 2.64997 4.29445 3.44368 3.52107C4.21511 2.72554 5.15564 2.11377 6.1956 1.73107C7.61849 1.20361 9.12164 0.925311 10.6391 0.908377C13.1621 0.792993 13.9198 0.769531 20.3075 0.769531C26.6952 0.769531 27.4525 0.7953 29.9767 0.908377C31.4938 0.92687 32.9964 1.20513 34.4194 1.73107C35.4589 2.11428 36.3992 2.72583 37.171 3.52068C37.9661 4.2927 38.5779 5.23322 38.9614 6.27299C39.4889 7.69586 39.7674 9.19901 39.7844 10.7165C39.8998 13.2407 39.9233 13.9964 39.9233 20.3857C39.9233 26.7749 39.8998 27.5307 39.7844 30.0549C39.7661 31.5721 39.4877 33.0749 38.9614 34.498C38.5632 35.53 37.9534 36.4672 37.1711 37.2492C36.3889 38.0313 35.4515 38.6409 34.4194 39.0387C32.9966 39.5663 31.4934 39.8448 29.976 39.8618C27.4541 39.9772 26.696 40.0007 20.3067 40.0007C13.9175 40.0007 13.1617 39.9784 10.6398 39.8618" fill="url(#paint0_radial_236_2249)"/>
<path d="M10.6402 39.8614C9.1228 39.8445 7.61965 39.5662 6.19675 39.0387C5.15769 38.6547 4.2176 38.0432 3.44521 37.2491C2.64897 36.4783 2.03663 35.538 1.65368 34.498C1.12666 33.0751 0.848747 31.5721 0.832139 30.0549C0.7156 27.5326 0.692139 26.7761 0.692139 20.3849C0.692139 13.9938 0.717908 13.2399 0.830985 10.7157C0.849609 9.19906 1.12786 7.69683 1.65368 6.27414C2.0385 5.23491 2.64997 4.29445 3.44368 3.52107C4.21511 2.72554 5.15564 2.11377 6.1956 1.73107C7.61849 1.20361 9.12164 0.925311 10.6391 0.908377C13.1621 0.792993 13.9198 0.769531 20.3075 0.769531C26.6952 0.769531 27.4525 0.7953 29.9767 0.908377C31.4938 0.92687 32.9964 1.20513 34.4194 1.73107C35.4589 2.11428 36.3992 2.72583 37.171 3.52068C37.9661 4.2927 38.5779 5.23322 38.9614 6.27299C39.4889 7.69586 39.7674 9.19901 39.7844 10.7165C39.8998 13.2407 39.9233 13.9964 39.9233 20.3857C39.9233 26.7749 39.8998 27.5307 39.7844 30.0549C39.7661 31.5721 39.4877 33.0749 38.9614 34.498C38.5632 35.53 37.9534 36.4672 37.1711 37.2492C36.3889 38.0313 35.4515 38.6409 34.4194 39.0387C32.9966 39.5663 31.4934 39.8448 29.976 39.8618C27.4541 39.9772 26.696 40.0007 20.3067 40.0007C13.9175 40.0007 13.1617 39.9784 10.6398 39.8618" fill="url(#paint1_radial_236_2249)"/>
<path d="M15.4908 20.468C15.4909 19.5071 15.7759 18.5679 16.3098 17.769C16.8437 16.9701 17.6025 16.3475 18.4903 15.9799C19.378 15.6123 20.3548 15.5162 21.2972 15.7037C22.2396 15.8913 23.1052 16.3541 23.7845 17.0336C24.4638 17.7131 24.9264 18.5788 25.1138 19.5212C25.3011 20.4636 25.2048 21.4404 24.8369 22.3281C24.4691 23.2158 23.8463 23.9744 23.0473 24.5081C22.2483 25.0418 21.309 25.3266 20.3482 25.3265C19.0598 25.3262 17.8242 24.8143 16.9133 23.9031C16.0024 22.992 15.4907 21.7564 15.4908 20.468ZM12.8643 20.468C12.8643 21.9481 13.3032 23.3951 14.1256 24.6258C14.9479 25.8565 16.1167 26.8157 17.4842 27.3822C18.8517 27.9486 20.3564 28.0968 21.8082 27.808C23.2599 27.5193 24.5934 26.8065 25.64 25.7599C26.6867 24.7132 27.3994 23.3797 27.6882 21.928C27.977 20.4763 27.8288 18.9715 27.2623 17.604C26.6959 16.2365 25.7367 15.0677 24.5059 14.2454C23.2752 13.4231 21.8283 12.9841 20.3482 12.9841C19.3653 12.9841 18.3922 13.1776 17.4841 13.5537C16.5761 13.9298 15.7511 14.481 15.0562 15.176C14.3612 15.8709 13.81 16.696 13.4339 17.604C13.0578 18.512 12.8643 19.4852 12.8643 20.468ZM26.3793 12.6876C26.3792 13.0335 26.4816 13.3717 26.6736 13.6593C26.8657 13.947 27.1387 14.1713 27.4582 14.3038C27.7777 14.4363 28.1293 14.4711 28.4686 14.4038C28.8078 14.3364 29.1195 14.17 29.3642 13.9255C29.6089 13.6811 29.7756 13.3695 29.8432 13.0303C29.9109 12.6911 29.8764 12.3394 29.7442 12.0198C29.6119 11.7002 29.3879 11.427 29.1004 11.2347C28.8129 11.0424 28.4748 10.9397 28.1289 10.9395C27.6653 10.9397 27.2207 11.1239 26.8928 11.4517C26.5649 11.7795 26.3805 12.224 26.3801 12.6876M14.4608 32.3314C13.5367 32.3213 12.6211 32.1522 11.7543 31.8314C11.1257 31.5891 10.5548 31.2179 10.0783 30.7416C9.6018 30.2653 9.23033 29.6946 8.98777 29.0661C8.66691 28.1993 8.49777 27.2837 8.48777 26.3595C8.417 24.8234 8.40316 24.3618 8.40316 20.4699C8.40316 16.578 8.41854 16.1176 8.48777 14.5799C8.49898 13.6558 8.66808 12.7405 8.98777 11.8734C9.23005 11.2445 9.60141 10.6735 10.0779 10.197C10.5544 9.72048 11.1255 9.34911 11.7543 9.10683C12.6211 8.78598 13.5366 8.61685 14.4608 8.60684C15.997 8.53607 16.4585 8.52222 20.3489 8.52222C24.2393 8.52222 24.7012 8.53723 26.2389 8.60723C27.163 8.61844 28.0784 8.78754 28.9455 9.10722C29.5743 9.34952 30.1453 9.72089 30.6218 10.1974C31.0983 10.6739 31.4697 11.2449 31.712 11.8738C32.0328 12.7405 32.202 13.6561 32.212 14.5803C32.2828 16.1188 32.2966 16.578 32.2966 20.4703C32.2966 24.3626 32.2824 24.8226 32.212 26.3603C32.2012 27.2844 32.0321 28.1998 31.712 29.0668C31.4694 29.6953 31.098 30.2661 30.6215 30.7424C30.145 31.2187 29.5741 31.5899 28.9455 31.8322C28.0787 32.153 27.1631 32.3222 26.2389 32.3322C24.7028 32.403 24.2412 32.4168 20.3489 32.4168C16.4566 32.4168 15.9966 32.4026 14.4608 32.3322M14.3401 5.98261C13.1308 6.00639 11.9343 6.23527 10.8016 6.65952C9.83335 7.0339 8.95399 7.60647 8.21993 8.34054C7.48587 9.0746 6.91329 9.95395 6.53892 10.9222C6.11472 12.0549 5.88584 13.2514 5.862 14.4607C5.79008 16.0145 5.77393 16.5114 5.77393 20.4695C5.77393 24.4276 5.79047 24.9241 5.862 26.4784C5.88583 27.6877 6.11472 28.8841 6.53892 30.0168C6.91331 30.9851 7.4859 31.8644 8.21996 32.5985C8.95402 33.3325 9.83336 33.9051 10.8016 34.2795C11.9343 34.7036 13.1308 34.9325 14.3401 34.9564C15.8947 35.0272 16.3908 35.0445 20.3489 35.0445C24.307 35.0445 24.8035 35.028 26.3578 34.9564C27.5671 34.9326 28.7635 34.7037 29.8962 34.2795C30.8645 33.9051 31.7438 33.3325 32.4779 32.5985C33.2119 31.8644 33.7845 30.9851 34.1589 30.0168C34.5837 28.8843 34.8126 27.6877 34.8358 26.4784C34.9066 24.9234 34.9228 24.4276 34.9228 20.4695C34.9228 16.5114 34.9062 16.0149 34.8358 14.4607C34.8121 13.2514 34.5832 12.0549 34.1589 10.9222C33.7845 9.95414 33.2121 9.07492 32.4783 8.34088C31.7444 7.60684 30.8654 7.03416 29.8974 6.65952C28.7648 6.235 27.5682 6.0061 26.3589 5.98261C24.8047 5.91146 24.3081 5.89453 20.3508 5.89453C16.3935 5.89453 15.8958 5.91107 14.3408 5.98261" fill="white"/>
<defs>
<radialGradient id="paint0_radial_236_2249" cx="0" cy="0" r="1" gradientUnits="userSpaceOnUse" gradientTransform="translate(3.23098 39.1411) scale(49.8084)">
<stop offset="0.09" stop-color="#FA8F21"/>
<stop offset="0.78" stop-color="#D82D7E"/>
</radialGradient>
<radialGradient id="paint1_radial_236_2249" cx="0" cy="0" r="1" gradientUnits="userSpaceOnUse" gradientTransform="translate(27.866 37.8811) scale(43.8319)">
<stop offset="0.64" stop-color="#8C3AAA" stop-opacity="0"/>
<stop offset="1" stop-color="#8C3AAA"/>
</radialGradient>
</defs>
</svg>
