<svg width="34" height="40" viewBox="0 0 34 40" fill="none" xmlns="http://www.w3.org/2000/svg">
<path d="M33.9998 17.1481V10.1659C30.8595 10.1659 28.4629 9.29318 26.9164 7.5968C25.3291 5.66078 24.4399 3.20903 24.4018 0.663799V0.159803L18.0623 0V28.3589C17.8448 29.5963 17.268 30.7343 16.4096 31.6195C15.5513 32.5046 14.4529 33.0942 13.2625 33.3088C12.0722 33.5233 10.8473 33.3523 9.75321 32.819C8.65913 32.2857 7.74854 31.4157 7.14438 30.3264C6.54021 29.2371 6.27156 27.9811 6.37468 26.7278C6.47781 25.4745 6.94775 24.2844 7.72106 23.318C8.49438 22.3516 9.53382 21.6556 10.6991 21.3238C11.8643 20.9921 13.0993 21.0406 14.2373 21.4628V14.7019C13.5738 14.5887 12.9026 14.5312 12.2303 14.5298C9.81134 14.5298 7.44669 15.2767 5.43538 16.6761C3.42408 18.0754 1.85646 20.0644 0.930757 22.3914C0.00505495 24.7184 -0.237151 27.279 0.234768 29.7494C0.706687 32.2198 1.87153 34.4889 3.58201 36.27C5.29248 38.051 7.47176 39.2639 9.84425 39.7553C12.2167 40.2467 14.6759 39.9945 16.9107 39.0306C19.1456 38.0667 21.0557 36.4344 22.3996 34.3401C23.7436 32.2459 24.4609 29.7837 24.4609 27.2649C24.4596 26.743 24.428 26.2217 24.3664 25.7037V14.4561C27.2491 16.3306 30.603 17.2679 33.9998 17.1481Z" fill="black"/>
</svg>
