<svg width="114" height="114" viewBox="0 0 114 114" fill="none" xmlns="http://www.w3.org/2000/svg">
<path d="M113.684 101.053C113.684 104.403 112.353 107.616 109.985 109.985C107.616 112.354 104.403 113.684 101.053 113.684H12.6316C9.28148 113.684 6.06859 112.354 3.69971 109.985C1.33083 107.616 0 104.403 0 101.053V12.6317C0 9.28159 1.33083 6.0687 3.69971 3.69982C6.06859 1.33094 9.28148 0.000114441 12.6316 0.000114441H101.053C104.403 0.000114441 107.616 1.33094 109.985 3.69982C112.353 6.0687 113.684 9.28159 113.684 12.6317V101.053Z" fill="#EA9F31"/>
<path d="M51.9852 35.2897H46.2094C41.5105 35.2897 39.5494 31.8634 39.5494 28.535C39.5494 25.1055 41.9968 21.7771 46.2094 21.7771H60.1105C64.3231 21.7771 66.6726 24.8118 66.6726 28.7276V84.4423C66.6726 89.3402 63.54 92.0781 59.3273 92.0781C55.1179 92.0781 51.9852 89.3402 51.9852 84.4423V35.2897Z" fill="white"/>
</svg>
