<svg width="120" height="120" viewBox="0 0 120 120" fill="none" xmlns="http://www.w3.org/2000/svg">
<mask id="mask0_217_2110" style="mask-type:luminance" maskUnits="userSpaceOnUse" x="0" y="0" width="120" height="120">
<path d="M0 -7.62939e-06H120V120H0V-7.62939e-06Z" fill="white"/>
</mask>
<g mask="url(#mask0_217_2110)">
<path d="M116.842 104.21C116.842 107.561 115.511 110.773 113.142 113.142C110.773 115.511 107.561 116.842 104.21 116.842H15.7894C12.4393 116.842 9.22642 115.511 6.85754 113.142C4.48866 110.773 3.15784 107.561 3.15784 104.21V15.7894C3.15784 12.4393 4.48866 9.22641 6.85754 6.85754C9.22642 4.48866 12.4393 3.15783 15.7894 3.15783H104.21C107.561 3.15783 110.773 4.48866 113.142 6.85754C115.511 9.22641 116.842 12.4393 116.842 15.7894V104.21Z" fill="#EEACC4"/>
<path d="M76.061 81.8116C80.3716 81.8116 83.7032 83.7694 83.7032 88.2726C83.7032 92.7789 80.3716 94.7368 76.6516 94.7368H43.9484C39.6379 94.7368 36.3126 92.7789 36.3126 88.2726C36.3126 86.22 37.5821 84.4547 38.561 83.28C46.6895 73.5884 55.5032 64.7716 62.9432 54.0031C64.7053 51.4579 66.3726 48.4231 66.3726 44.8989C66.3726 40.8852 63.3379 37.3579 59.321 37.3579C48.06 37.3579 53.4442 53.22 44.0463 53.22C39.3474 53.22 36.8968 49.8916 36.8968 46.0737C36.8968 33.7358 47.8642 23.8484 59.9084 23.8484C71.9526 23.8484 81.6442 31.7779 81.6442 44.2137C81.6442 57.821 66.4705 71.3368 58.1463 81.8116H76.061Z" fill="white"/>
</g>
</svg>
