<svg width="114" height="114" viewBox="0 0 114 114" fill="none" xmlns="http://www.w3.org/2000/svg">
<path d="M113.684 101.053C113.684 104.403 112.353 107.616 109.985 109.985C107.616 112.354 104.403 113.684 101.053 113.684H12.6316C9.28148 113.684 6.06859 112.354 3.69971 109.985C1.33083 107.616 0 104.403 0 101.053V12.6317C0 9.28159 1.33083 6.0687 3.69971 3.69982C6.06859 1.33094 9.28148 0.000114441 12.6316 0.000114441H101.053C104.403 0.000114441 107.616 1.33094 109.985 3.69982C112.353 6.0687 113.684 9.28159 113.684 12.6317V101.053Z" fill="#79B99C"/>
<path d="M76.1368 38.6086C76.1368 44.7792 73.4968 50.1634 68.1094 53.5897C75.1579 56.8234 80.0526 63.3823 80.0526 71.116C80.0526 82.8665 69.2842 92.7539 55.38 92.7539C40.8884 92.7539 31.8821 82.0834 31.8821 74.3465C31.8821 70.5286 35.8958 67.7876 39.4231 67.7876C46.08 67.7876 44.5137 79.2444 55.5758 79.2444C60.6694 79.2444 64.781 75.3286 64.781 70.1371C64.781 56.4318 48.1358 66.515 48.1358 54.9602C48.1358 44.6813 62.0368 51.6318 62.0368 40.7655C62.0368 37.0423 59.3968 34.2034 54.9884 34.2034C45.6884 34.2034 46.961 43.8002 40.301 43.8002C36.2873 43.8002 33.9379 40.175 33.9379 36.5529C33.9379 28.9171 44.4158 20.6908 55.2821 20.6908C69.3821 20.6908 76.1368 30.9729 76.1368 38.6086Z" fill="white"/>
</svg>
