<svg width="39" height="39" viewBox="0 0 39 39" fill="none" xmlns="http://www.w3.org/2000/svg">
<path d="M36.3387 39.0001C37.5108 39.0001 38.4612 38.0496 38.4612 36.8774V2.66128C38.4612 1.48867 37.5107 0.538574 36.3387 0.538574H2.1227C0.9501 0.538574 0 1.48882 0 2.66128V36.8773C0 38.0496 0.9501 39 2.1227 39L36.3387 39.0001Z" fill="#485A96"/>
<path d="M26.5376 39.0002V24.1059H31.537L32.2855 18.3012H26.5375V14.5952C26.5375 12.9146 27.0041 11.7694 29.4142 11.7694L32.4878 11.768V6.57635C31.9562 6.50574 30.1315 6.34766 28.009 6.34766C23.5772 6.34766 20.5432 9.05269 20.5432 14.0205V18.3012H15.531V24.1059H20.5432V39.0001L26.5376 39.0002Z" fill="white"/>
</svg>
