<svg width="588" height="55" viewBox="0 0 588 55" fill="none" xmlns="http://www.w3.org/2000/svg">
<g filter="url(#filter0_d_207_2004)">
<path d="M21.0244 43.584C20.6657 44.3203 18.8815 44.7734 15.6719 44.9434C12.4811 45.0944 10.2061 44.8584 8.84668 44.2354C8.24251 43.9521 7.64779 42.0169 7.0625 38.4297C6.49609 34.8236 5.99577 30.7832 5.56152 26.3086C5.14616 21.834 4.8252 17.5293 4.59863 13.3945C4.39095 9.24089 4.34375 6.46549 4.45703 5.06836C4.57031 3.91667 5.52376 3.03874 7.31738 2.43457C9.111 1.8304 11.0745 1.5 13.208 1.44336C15.3415 1.36784 17.305 1.55664 19.0986 2.00977C20.8923 2.46289 21.8457 3.16146 21.959 4.10547C22.1289 5.71029 22.2611 7.61719 22.3555 9.82617C22.4688 12.0163 22.5443 14.3291 22.582 16.7646C24.1868 16.6891 25.8672 16.6325 27.623 16.5947C27.5475 14.1781 27.5098 11.8936 27.5098 9.74121C27.5286 7.56999 27.5947 5.69141 27.708 4.10547C27.7646 3.14258 28.6803 2.43457 30.4551 1.98145C32.2298 1.50944 34.1839 1.30176 36.3174 1.3584C38.4508 1.41504 40.4238 1.74544 42.2363 2.34961C44.0677 2.9349 45.0684 3.80339 45.2383 4.95508C45.4271 6.35221 45.4932 9.1276 45.4365 13.2812C45.3988 17.416 45.2572 21.7301 45.0117 26.2236C44.7852 30.6982 44.4548 34.7292 44.0205 38.3164C43.6051 41.9036 43.1143 43.8389 42.5479 44.1221C41.2262 44.764 38.9606 45.0189 35.751 44.8867C32.5602 44.7357 30.7666 44.292 30.3701 43.5557C30.068 43.1592 29.766 42.0169 29.4639 40.1289C29.1618 38.222 28.888 35.9092 28.6426 33.1904C27.5853 33.3981 26.5091 33.5869 25.4141 33.7568C24.3379 33.9079 23.2806 34.0495 22.2422 34.1816C22.0911 36.6549 21.9118 38.7412 21.7041 40.4404C21.4964 42.1396 21.2699 43.1875 21.0244 43.584ZM89.8623 26.3936C88.8805 32.3408 85.9919 37.1364 81.1963 40.7803C76.4196 44.4242 70.8594 45.7174 64.5156 44.6602C58.3984 43.6406 53.584 40.7236 50.0723 35.9092C46.5605 31.0947 45.2767 25.7611 46.2207 19.9082C47.1081 14.4707 49.7324 9.91113 54.0938 6.22949C58.474 2.52897 63.5622 0.933594 69.3584 1.44336C76.3441 2.04753 81.7721 4.7002 85.6426 9.40137C89.5319 14.1025 90.9385 19.7666 89.8623 26.3936ZM73.6064 23.9863C73.8708 22.3626 73.5592 20.9844 72.6719 19.8516C71.8034 18.6999 70.529 17.9824 68.8486 17.6992C67.2627 17.4349 65.8656 17.7842 64.6572 18.7471C63.4489 19.6911 62.7314 20.89 62.5049 22.3438C62.2028 24.0996 62.6937 25.6572 63.9775 27.0166C65.2614 28.3571 66.8473 28.9141 68.7354 28.6875C70.0381 28.5553 71.1237 28.0456 71.9922 27.1582C72.8607 26.2708 73.3988 25.2135 73.6064 23.9863ZM140.377 43.5273C140.226 43.9427 139.395 44.2826 137.885 44.5469C136.374 44.7923 134.685 44.9339 132.815 44.9717C130.946 44.9906 129.153 44.915 127.435 44.7451C125.735 44.5752 124.64 44.2637 124.149 43.8105C123.375 43.2064 122.403 42.1774 121.232 40.7236C120.081 39.2699 119.193 38.1276 118.57 37.2969C117.834 38.3164 117.003 39.4587 116.078 40.7236C115.153 41.9886 114.228 43.0176 113.303 43.8105C112.793 44.2259 111.688 44.5186 109.989 44.6885C108.309 44.8395 106.534 44.8962 104.665 44.8584C102.815 44.8206 101.125 44.6885 99.5957 44.4619C98.0853 44.2165 97.2546 43.9049 97.1035 43.5273C95.9707 40.8464 95.0361 37.3724 94.2998 33.1055C93.5635 28.8385 92.9971 24.6188 92.6006 20.4463C92.223 16.2738 92.0247 12.5827 92.0059 9.37305C92.0059 6.14453 92.1569 4.22819 92.459 3.62402C92.5911 3.24642 93.252 2.8877 94.4414 2.54785C95.6309 2.18913 96.9902 1.91536 98.5195 1.72656C100.049 1.53776 101.569 1.4528 103.079 1.47168C104.59 1.47168 105.732 1.6416 106.506 1.98145C107.242 2.32129 107.912 4.56803 108.517 8.72168C109.14 12.8753 109.791 17.3027 110.471 22.0039C111.018 21.4186 112.33 19.9837 114.407 17.6992C116.484 15.4147 117.891 14.2441 118.627 14.1875C119.288 14.1309 120.553 15.3014 122.422 17.6992C124.31 20.0781 125.471 21.5319 125.905 22.0605C126.415 17.3594 126.963 12.9225 127.548 8.75C128.133 4.57747 128.794 2.32129 129.53 1.98145C130.267 1.6416 131.371 1.47168 132.844 1.47168C134.335 1.4528 135.827 1.53776 137.318 1.72656C138.829 1.91536 140.179 2.18913 141.368 2.54785C142.558 2.8877 143.228 3.24642 143.379 3.62402C143.719 4.22819 143.917 6.13509 143.974 9.34473C144.03 12.5355 143.936 16.2171 143.69 20.3896C143.445 24.5433 143.039 28.763 142.473 33.0488C141.925 37.3158 141.227 40.8086 140.377 43.5273ZM188.164 43.6123C187.956 43.9899 187.267 44.292 186.097 44.5186C184.926 44.7451 183.604 44.8867 182.132 44.9434C180.678 45 179.234 44.9717 177.799 44.8584C176.364 44.7451 175.278 44.528 174.542 44.207C173.768 43.8672 173.069 41.0918 172.446 35.8809C171.842 30.651 171.38 25.3646 171.059 20.0215C168.264 19.9648 165.857 19.8232 163.837 19.5967C161.817 19.3512 160.703 19.002 160.495 18.5488C160.136 17.8314 159.834 16.6797 159.589 15.0938C159.343 13.4889 159.183 11.8558 159.107 10.1943C159.032 8.514 159.041 7.00358 159.136 5.66309C159.249 4.30371 159.494 3.52018 159.872 3.3125C160.42 2.87826 162.27 2.52897 165.423 2.26465C168.576 2.00033 172.201 1.82096 176.298 1.72656C180.395 1.61328 184.558 1.58496 188.787 1.6416C193.016 1.67936 196.49 1.7832 199.209 1.95312C200.285 2.02865 201.021 2.95378 201.418 4.72852C201.814 6.50326 201.956 8.44792 201.843 10.5625C201.729 12.6771 201.399 14.6217 200.852 16.3965C200.323 18.1712 199.672 19.0869 198.897 19.1436C198.18 19.2568 197.028 19.3701 195.442 19.4834C193.856 19.5778 192.072 19.6628 190.09 19.7383C190.033 25.0625 189.835 30.1979 189.495 35.1445C189.155 40.0723 188.712 42.8949 188.164 43.6123ZM246.438 26.3936C245.457 32.3408 242.568 37.1364 237.772 40.7803C232.996 44.4242 227.436 45.7174 221.092 44.6602C214.975 43.6406 210.16 40.7236 206.648 35.9092C203.137 31.0947 201.853 25.7611 202.797 19.9082C203.684 14.4707 206.309 9.91113 210.67 6.22949C215.05 2.52897 220.138 0.933594 225.935 1.44336C232.92 2.04753 238.348 4.7002 242.219 9.40137C246.108 14.1025 247.515 19.7666 246.438 26.3936ZM230.183 23.9863C230.447 22.3626 230.135 20.9844 229.248 19.8516C228.38 18.6999 227.105 17.9824 225.425 17.6992C223.839 17.4349 222.442 17.7842 221.233 18.7471C220.025 19.6911 219.308 20.89 219.081 22.3438C218.779 24.0996 219.27 25.6572 220.554 27.0166C221.838 28.3571 223.424 28.9141 225.312 28.6875C226.614 28.5553 227.7 28.0456 228.568 27.1582C229.437 26.2708 229.975 25.2135 230.183 23.9863ZM282.473 15.5469C282.076 15.5846 281.717 15.4808 281.396 15.2354C281 14.9521 280.792 14.6406 280.773 14.3008C280.773 13.9609 280.585 13.64 280.207 13.3379C279.263 12.6016 278.064 12.7337 276.61 13.7344C275.157 14.735 275.761 15.5091 278.423 16.0566C278.706 16.1133 279.018 16.1794 279.357 16.2549C279.697 16.3115 280.047 16.3682 280.405 16.4248C284.748 17.18 288.174 18.4733 290.686 20.3047C293.782 22.5703 295.557 25.5345 296.01 29.1973C296.482 32.8411 295.472 36.1074 292.979 38.9961C290.034 42.4134 286.041 44.377 281 44.8867C275.978 45.3776 271.635 44.3203 267.973 41.7148C264.82 39.5059 262.847 36.721 262.054 33.3604C261.714 31.7744 262.507 30.5472 264.433 29.6787C265.282 29.2822 266.217 28.999 267.236 28.8291C268.275 28.6592 269.266 28.5648 270.21 28.5459C271.758 28.5459 273.155 28.7347 274.401 29.1123C275.647 29.471 276.355 29.9902 276.525 30.6699C276.544 30.8021 276.591 30.9342 276.667 31.0664C276.875 31.5384 277.271 31.8877 277.856 32.1143C278.555 32.3975 279.367 32.3597 280.292 32.001C281.236 31.6234 281.51 30.9909 281.113 30.1035C280.906 29.6882 280.339 29.3483 279.414 29.084C277.205 28.4421 275.006 27.9606 272.815 27.6396C270.625 27.2998 268.549 26.403 266.585 24.9492C265.169 23.9297 264.055 22.5326 263.243 20.7578C262.45 18.9831 262.186 16.6325 262.45 13.7061C262.828 9.76009 264.725 6.5127 268.143 3.96387C270.144 2.47233 272.428 1.48112 274.996 0.990234C277.564 0.480469 280.056 0.480469 282.473 0.990234C284.889 1.48112 287.061 2.48177 288.986 3.99219C290.931 5.48372 292.271 7.47559 293.008 9.96777C293.291 10.9307 293.017 11.7614 292.187 12.46C291.375 13.1396 290.355 13.7061 289.128 14.1592C287.901 14.6123 286.645 14.9521 285.361 15.1787C284.077 15.4053 283.115 15.528 282.473 15.5469ZM325.284 3.99219C325.303 3.48242 326.068 3.08594 327.578 2.80273C329.089 2.50065 330.759 2.34961 332.591 2.34961C334.441 2.33073 336.169 2.47233 337.773 2.77441C339.397 3.0765 340.351 3.56738 340.634 4.24707C341.03 5.24772 341.304 6.9847 341.455 9.45801C341.625 11.9313 341.653 14.6217 341.54 17.5293C341.446 20.4368 341.191 23.2878 340.775 26.082C340.379 28.8763 339.812 31.0853 339.076 32.709C337.49 36.1829 335.168 39.015 332.109 41.2051C329.07 43.3952 325.586 44.6413 321.659 44.9434C316.713 45.2832 312.106 44.0749 307.839 41.3184C303.572 38.543 300.617 34.8613 298.975 30.2734C298.427 28.7819 298.031 26.639 297.785 23.8447C297.559 21.0505 297.455 18.2184 297.474 15.3486C297.493 12.4788 297.662 9.87337 297.983 7.53223C298.304 5.1722 298.776 3.68066 299.399 3.05762C299.928 2.54785 301.033 2.20801 302.713 2.03809C304.393 1.86816 306.13 1.8304 307.924 1.9248C309.736 2.01921 311.341 2.23633 312.738 2.57617C314.154 2.89714 314.862 3.3125 314.862 3.82227C314.825 5.29492 314.702 7.3623 314.494 10.0244C314.286 12.6676 314.23 15.3109 314.324 17.9541C314.438 20.5785 314.834 22.9007 315.514 24.9209C316.212 26.9222 317.449 28.0173 319.224 28.2061C321.149 28.4326 322.528 27.5547 323.358 25.5723C324.208 23.571 324.756 21.2015 325.001 18.4639C325.265 15.7074 325.35 12.9414 325.256 10.166C325.18 7.39062 325.19 5.33268 325.284 3.99219ZM366.057 44.7451C365.377 44.8206 364.046 44.8867 362.063 44.9434C360.1 44.9811 357.985 45 355.72 45C353.473 44.9811 351.349 44.915 349.348 44.8018C347.346 44.6696 345.996 44.4525 345.298 44.1504C344.637 43.8861 344.127 41.9603 343.769 38.373C343.41 34.7858 343.174 30.7643 343.061 26.3086C342.947 21.834 342.938 17.5293 343.032 13.3945C343.127 9.24089 343.306 6.46549 343.57 5.06836C343.74 4.18099 344.684 3.39746 346.402 2.71777C348.139 2.03809 350.235 1.57552 352.689 1.33008C355.144 1.06576 357.749 1.06576 360.506 1.33008C363.281 1.5944 365.802 2.21745 368.067 3.19922C371.371 4.67188 373.58 7.08854 374.694 10.4492C375.808 13.8099 375.421 16.9629 373.533 19.9082L373.618 19.9648C376.11 21.4753 377.753 23.4388 378.546 25.8555C379.358 28.2721 379.443 30.821 378.801 33.502C378.102 36.4473 376.611 38.9867 374.326 41.1201C372.042 43.2347 369.285 44.443 366.057 44.7451ZM357.107 11.8369C356.881 12.6299 356.843 13.6966 356.994 15.0371C357.164 16.3587 357.523 17.1045 358.07 17.2744C359.109 17.6143 360.175 17.416 361.271 16.6797C362.384 15.9434 362.941 15.0182 362.941 13.9043C362.941 13.168 362.62 12.4977 361.979 11.8936C361.355 11.2894 360.393 10.9779 359.09 10.959C357.919 10.959 357.258 11.2516 357.107 11.8369ZM357.702 33.332C358.155 34.3516 359.524 34.5498 361.809 33.9268C364.093 33.2848 365.065 32.001 364.726 30.0752C364.48 28.6781 363.612 27.6019 362.12 26.8467C360.629 26.0726 359.26 25.9688 358.014 26.5352C357.372 26.8372 357.041 27.8096 357.022 29.4521C357.022 31.0758 357.249 32.3691 357.702 33.332ZM401.137 15.5469C400.74 15.5846 400.382 15.4808 400.061 15.2354C399.664 14.9521 399.456 14.6406 399.438 14.3008C399.438 13.9609 399.249 13.64 398.871 13.3379C397.927 12.6016 396.728 12.7337 395.274 13.7344C393.821 14.735 394.425 15.5091 397.087 16.0566C397.37 16.1133 397.682 16.1794 398.021 16.2549C398.361 16.3115 398.711 16.3682 399.069 16.4248C403.412 17.18 406.839 18.4733 409.35 20.3047C412.446 22.5703 414.221 25.5345 414.674 29.1973C415.146 32.8411 414.136 36.1074 411.644 38.9961C408.698 42.4134 404.705 44.377 399.664 44.8867C394.642 45.3776 390.299 44.3203 386.637 41.7148C383.484 39.5059 381.511 36.721 380.718 33.3604C380.378 31.7744 381.171 30.5472 383.097 29.6787C383.946 29.2822 384.881 28.999 385.9 28.8291C386.939 28.6592 387.93 28.5648 388.874 28.5459C390.422 28.5459 391.819 28.7347 393.065 29.1123C394.312 29.471 395.02 29.9902 395.189 30.6699C395.208 30.8021 395.256 30.9342 395.331 31.0664C395.539 31.5384 395.935 31.8877 396.521 32.1143C397.219 32.3975 398.031 32.3597 398.956 32.001C399.9 31.6234 400.174 30.9909 399.777 30.1035C399.57 29.6882 399.003 29.3483 398.078 29.084C395.869 28.4421 393.67 27.9606 391.479 27.6396C389.289 27.2998 387.213 26.403 385.249 24.9492C383.833 23.9297 382.719 22.5326 381.907 20.7578C381.114 18.9831 380.85 16.6325 381.114 13.7061C381.492 9.76009 383.389 6.5127 386.807 3.96387C388.808 2.47233 391.092 1.48112 393.66 0.990234C396.228 0.480469 398.72 0.480469 401.137 0.990234C403.553 1.48112 405.725 2.48177 407.65 3.99219C409.595 5.48372 410.936 7.47559 411.672 9.96777C411.955 10.9307 411.681 11.7614 410.851 12.46C410.039 13.1396 409.019 13.7061 407.792 14.1592C406.565 14.6123 405.309 14.9521 404.025 15.1787C402.742 15.4053 401.779 15.528 401.137 15.5469ZM445.506 16.3965C444.675 16.4342 443.844 16.4814 443.014 16.5381C442.202 16.5947 441.409 16.6891 440.635 16.8213C438.652 17.2178 436.849 18.1618 435.226 19.6533C433.621 21.126 433.035 22.9574 433.47 25.1475C433.677 26.1481 434.149 26.9316 434.886 27.498C436.056 28.4232 437.614 28.8669 439.559 28.8291C441.503 28.7725 443.184 28.5837 444.6 28.2627C445.393 27.9984 446.167 28.0361 446.922 28.376C447.62 28.7158 448.253 29.3011 448.819 30.1318C449.707 31.4912 450.311 33.3037 450.632 35.5693C450.972 37.835 450.849 39.7041 450.264 41.1768C449.792 42.3851 449.074 43.1025 448.111 43.3291C445.015 44.4619 441.607 45.0189 437.888 45C434.168 44.9622 430.836 44.2731 427.891 42.9326C423.907 41.139 420.858 38.4958 418.743 35.0029C416.629 31.5101 415.788 27.5264 416.223 23.0518C416.959 15.9717 419.763 10.4398 424.634 6.45605C429.505 2.47233 435.565 0.867513 442.815 1.6416C444.024 1.77376 445.09 2.40625 446.016 3.53906C446.922 4.67188 447.668 6.64486 448.253 9.45801C448.857 12.2712 448.508 14.3291 447.205 15.6318C446.714 16.1227 446.148 16.3776 445.506 16.3965ZM482.342 26.8184C484.268 28.4232 485.957 29.9808 487.411 31.4912C488.865 33.0016 489.601 34.1344 489.62 34.8896C489.62 35.4372 489.309 36.249 488.686 37.3252C488.062 38.4014 487.345 39.4775 486.533 40.5537C485.721 41.6299 484.938 42.5739 484.183 43.3857C483.427 44.1976 482.908 44.6035 482.625 44.6035C481.398 44.849 479.604 44.2165 477.244 42.7061C474.903 41.1768 473.015 40.1667 471.58 39.6758C470.183 39.2415 469.428 39.4209 469.314 40.2139C469.333 41.5732 469.211 42.6117 468.946 43.3291C468.682 44.0465 467.757 44.4902 466.171 44.6602C464.358 44.849 462.282 44.9528 459.94 44.9717C457.618 44.9906 456.146 44.9339 455.522 44.8018C455.088 44.7262 454.739 44.4808 454.475 44.0654C454.097 43.5557 453.691 41.2145 453.257 37.042C452.823 32.8695 452.483 28.3477 452.237 23.4766C451.992 18.6055 451.879 14.1309 451.897 10.0527C451.935 5.97461 452.237 3.77507 452.804 3.4541C454.862 2.30241 457.618 1.47168 461.073 0.961914C464.528 0.452148 467.965 0.546549 471.382 1.24512C474.818 1.9248 477.886 3.34082 480.586 5.49316C483.305 7.62663 484.966 10.7607 485.57 14.8955C486.344 20.4085 485.268 24.3828 482.342 26.8184ZM468.097 21.4375C469.532 21.2865 470.646 20.7578 471.438 19.8516C472.231 18.9453 472.618 18.0013 472.6 17.0195C472.6 16.0378 472.146 15.1882 471.24 14.4707C470.353 13.7533 468.965 13.4984 467.077 13.7061C465.529 13.876 464.915 15.2542 465.236 17.8408C465.576 20.4085 466.53 21.6074 468.097 21.4375ZM509.181 43.584C508.784 44.3392 506.811 44.7923 503.262 44.9434C499.712 45.0755 497.201 44.8301 495.729 44.207C495.068 43.9238 494.445 41.9792 493.859 38.373C493.274 34.7669 492.774 30.7171 492.358 26.2236C491.943 21.7301 491.641 17.4066 491.452 13.2529C491.263 9.0804 491.254 6.29557 491.424 4.89844C491.556 3.74674 492.613 2.87826 494.596 2.29297C496.597 1.6888 498.778 1.3584 501.138 1.30176C503.517 1.22624 505.688 1.41504 507.651 1.86816C509.634 2.32129 510.682 3.0293 510.795 3.99219C511.097 6.71094 511.257 10.1943 511.276 14.4424C511.314 18.6904 511.248 22.8818 511.078 27.0166C510.908 31.1514 510.653 34.8047 510.313 37.9766C509.974 41.1484 509.596 43.0176 509.181 43.584ZM536.133 44.7451C535.453 44.8206 534.122 44.8867 532.14 44.9434C530.176 44.9811 528.062 45 525.796 45C523.549 44.9811 521.425 44.915 519.424 44.8018C517.423 44.6696 516.073 44.4525 515.374 44.1504C514.713 43.8861 514.203 41.9603 513.845 38.373C513.486 34.7858 513.25 30.7643 513.137 26.3086C513.023 21.834 513.014 17.5293 513.108 13.3945C513.203 9.24089 513.382 6.46549 513.646 5.06836C513.816 4.18099 514.76 3.39746 516.479 2.71777C518.215 2.03809 520.311 1.57552 522.766 1.33008C525.22 1.06576 527.826 1.06576 530.582 1.33008C533.357 1.5944 535.878 2.21745 538.144 3.19922C541.448 4.67188 543.657 7.08854 544.771 10.4492C545.884 13.8099 545.497 16.9629 543.609 19.9082L543.694 19.9648C546.187 21.4753 547.829 23.4388 548.622 25.8555C549.434 28.2721 549.519 30.821 548.877 33.502C548.178 36.4473 546.687 38.9867 544.402 41.1201C542.118 43.2347 539.361 44.443 536.133 44.7451ZM527.184 11.8369C526.957 12.6299 526.919 13.6966 527.07 15.0371C527.24 16.3587 527.599 17.1045 528.146 17.2744C529.185 17.6143 530.252 17.416 531.347 16.6797C532.461 15.9434 533.018 15.0182 533.018 13.9043C533.018 13.168 532.697 12.4977 532.055 11.8936C531.432 11.2894 530.469 10.9779 529.166 10.959C527.995 10.959 527.335 11.2516 527.184 11.8369ZM527.778 33.332C528.231 34.3516 529.6 34.5498 531.885 33.9268C534.169 33.2848 535.142 32.001 534.802 30.0752C534.556 28.6781 533.688 27.6019 532.196 26.8467C530.705 26.0726 529.336 25.9688 528.09 26.5352C527.448 26.8372 527.118 27.8096 527.099 29.4521C527.099 31.0758 527.325 32.3691 527.778 33.332ZM568.806 29.9336C572.11 29.8958 575.093 29.8014 577.755 29.6504C580.417 29.4993 581.984 29.6787 582.456 30.1885C582.966 30.6038 583.334 32.4069 583.561 35.5977C583.806 38.7884 583.721 41.1012 583.306 42.5361C583.117 43.1403 581.635 43.6406 578.859 44.0371C576.084 44.4336 572.969 44.7074 569.514 44.8584C566.059 44.9906 562.745 45.0094 559.573 44.915C556.401 44.8206 554.334 44.5658 553.371 44.1504C552.805 43.9238 552.333 42.404 551.955 39.5908C551.596 36.7588 551.313 33.4548 551.105 29.6787C550.898 25.8838 550.775 22.0228 550.737 18.0957C550.7 14.1497 550.737 10.9401 550.851 8.4668C550.851 7.10742 550.964 5.87077 551.19 4.75684C551.417 3.62402 551.766 2.91602 552.238 2.63281C552.71 2.34961 554.372 2.10417 557.223 1.89648C560.074 1.6888 563.151 1.56608 566.455 1.52832C569.759 1.47168 572.818 1.52832 575.631 1.69824C578.444 1.84928 580.058 2.13249 580.474 2.54785C580.983 2.96322 581.267 4.60579 581.323 7.47559C581.399 10.3265 581.229 12.4788 580.813 13.9326C580.606 14.6123 579.275 15.0371 576.82 15.207C574.385 15.3581 571.534 15.4902 568.268 15.6035C568.268 15.8301 568.277 16.0944 568.296 16.3965C568.315 16.6986 568.334 16.9629 568.353 17.1895C570.486 17.2272 572.223 17.3877 573.563 17.6709C573.884 17.7653 574.196 18.3317 574.498 19.3701C574.819 20.3896 575.036 21.513 575.149 22.7402C575.282 23.9486 575.282 25.0719 575.149 26.1104C575.017 27.1488 574.687 27.7057 574.158 27.7812C573.781 27.8945 573.091 27.9984 572.091 28.0928C571.109 28.1683 570.014 28.2249 568.806 28.2627C568.806 28.5081 568.806 28.7913 568.806 29.1123C568.806 29.4333 568.806 29.707 568.806 29.9336Z" fill="#183282"/>
</g>
<defs>
<filter id="filter0_d_207_2004" x="0.287109" y="0.197266" width="587.642" height="54.0488" filterUnits="userSpaceOnUse" color-interpolation-filters="sRGB">
<feFlood flood-opacity="0" result="BackgroundImageFix"/>
<feColorMatrix in="SourceAlpha" type="matrix" values="0 0 0 0 0 0 0 0 0 0 0 0 0 0 0 0 0 0 127 0" result="hardAlpha"/>
<feOffset dy="4"/>
<feGaussianBlur stdDeviation="2"/>
<feComposite in2="hardAlpha" operator="out"/>
<feColorMatrix type="matrix" values="0 0 0 0 0 0 0 0 0 0 0 0 0 0 0 0 0 0 0.25 0"/>
<feBlend mode="normal" in2="BackgroundImageFix" result="effect1_dropShadow_207_2004"/>
<feBlend mode="normal" in="SourceGraphic" in2="effect1_dropShadow_207_2004" result="shape"/>
</filter>
</defs>
</svg>
