<svg width="652" height="47" viewBox="0 0 652 47" fill="none" xmlns="http://www.w3.org/2000/svg">
<path d="M21.626 15.5469C21.2295 15.5846 20.8708 15.4808 20.5498 15.2354C20.1533 14.9521 19.9456 14.6406 19.9268 14.3008C19.9268 13.9609 19.738 13.64 19.3604 13.3379C18.4163 12.6016 17.2174 12.7337 15.7637 13.7344C14.3099 14.735 14.9141 15.5091 17.5762 16.0566C17.8594 16.1133 18.1709 16.1794 18.5107 16.2549C18.8506 16.3115 19.1999 16.3682 19.5586 16.4248C23.901 17.18 27.3278 18.4733 29.8389 20.3047C32.9352 22.5703 34.71 25.5345 35.1631 29.1973C35.6351 32.8411 34.625 36.1074 32.1328 38.9961C29.1875 42.4134 25.1943 44.377 20.1533 44.8867C15.1312 45.3776 10.7887 44.3203 7.12598 41.7148C3.97298 39.5059 2 36.721 1.20703 33.3604C0.867188 31.7744 1.66016 30.5472 3.58594 29.6787C4.43555 29.2822 5.37012 28.999 6.38965 28.8291C7.42806 28.6592 8.41927 28.5648 9.36328 28.5459C10.9115 28.5459 12.3086 28.7347 13.5547 29.1123C14.8008 29.471 15.5088 29.9902 15.6787 30.6699C15.6976 30.8021 15.7448 30.9342 15.8203 31.0664C16.028 31.5384 16.4245 31.8877 17.0098 32.1143C17.7083 32.3975 18.5202 32.3597 19.4453 32.001C20.3893 31.6234 20.6631 30.9909 20.2666 30.1035C20.0589 29.6882 19.4925 29.3483 18.5674 29.084C16.3584 28.4421 14.1589 27.9606 11.9688 27.6396C9.77865 27.2998 7.70182 26.403 5.73828 24.9492C4.32227 23.9297 3.20833 22.5326 2.39648 20.7578C1.60352 18.9831 1.33919 16.6325 1.60352 13.7061C1.98112 9.76009 3.87858 6.5127 7.2959 3.96387C9.2972 2.47233 11.5817 1.48112 14.1494 0.990234C16.7171 0.480469 19.2093 0.480469 21.626 0.990234C24.0426 1.48112 26.2139 2.48177 28.1396 3.99219C30.0843 5.48372 31.4248 7.47559 32.1611 9.96777C32.4443 10.9307 32.1706 11.7614 31.3398 12.46C30.528 13.1396 29.5085 13.7061 28.2812 14.1592C27.054 14.6123 25.7985 14.9521 24.5146 15.1787C23.2308 15.4053 22.2679 15.528 21.626 15.5469ZM64.4375 3.99219C64.4564 3.48242 65.221 3.08594 66.7314 2.80273C68.2419 2.50065 69.9128 2.34961 71.7441 2.34961C73.5944 2.33073 75.3219 2.47233 76.9268 2.77441C78.5505 3.0765 79.5039 3.56738 79.7871 4.24707C80.1836 5.24772 80.4574 6.9847 80.6084 9.45801C80.7783 11.9313 80.8066 14.6217 80.6934 17.5293C80.599 20.4368 80.3441 23.2878 79.9287 26.082C79.5322 28.8763 78.9658 31.0853 78.2295 32.709C76.6436 36.1829 74.3213 39.015 71.2627 41.2051C68.223 43.3952 64.7396 44.6413 60.8125 44.9434C55.8659 45.2832 51.2591 44.0749 46.9922 41.3184C42.7253 38.543 39.7705 34.8613 38.1279 30.2734C37.5804 28.7819 37.1839 26.639 36.9385 23.8447C36.7119 21.0505 36.6081 18.2184 36.627 15.3486C36.6458 12.4788 36.8158 9.87337 37.1367 7.53223C37.4577 5.1722 37.9297 3.68066 38.5527 3.05762C39.0814 2.54785 40.1859 2.20801 41.8662 2.03809C43.5465 1.86816 45.2835 1.8304 47.0771 1.9248C48.8896 2.01921 50.4945 2.23633 51.8916 2.57617C53.3076 2.89714 54.0156 3.3125 54.0156 3.82227C53.9779 5.29492 53.8551 7.3623 53.6475 10.0244C53.4398 12.6676 53.3831 15.3109 53.4775 17.9541C53.5908 20.5785 53.9873 22.9007 54.667 24.9209C55.3656 26.9222 56.6022 28.0173 58.377 28.2061C60.3027 28.4326 61.681 27.5547 62.5117 25.5723C63.3613 23.571 63.9089 21.2015 64.1543 18.4639C64.4186 15.7074 64.5036 12.9414 64.4092 10.166C64.3337 7.39062 64.3431 5.33268 64.4375 3.99219ZM105.21 44.7451C104.53 44.8206 103.199 44.8867 101.217 44.9434C99.2533 44.9811 97.1387 45 94.873 45C92.6263 44.9811 90.5023 44.915 88.501 44.8018C86.4997 44.6696 85.1497 44.4525 84.4512 44.1504C83.7904 43.8861 83.2806 41.9603 82.9219 38.373C82.5632 34.7858 82.3271 30.7643 82.2139 26.3086C82.1006 21.834 82.0911 17.5293 82.1855 13.3945C82.2799 9.24089 82.4593 6.46549 82.7236 5.06836C82.8936 4.18099 83.8376 3.39746 85.5557 2.71777C87.2926 2.03809 89.3883 1.57552 91.8428 1.33008C94.2972 1.06576 96.9027 1.06576 99.6592 1.33008C102.435 1.5944 104.955 2.21745 107.221 3.19922C110.525 4.67188 112.734 7.08854 113.848 10.4492C114.962 13.8099 114.575 16.9629 112.687 19.9082L112.771 19.9648C115.264 21.4753 116.906 23.4388 117.699 25.8555C118.511 28.2721 118.596 30.821 117.954 33.502C117.256 36.4473 115.764 38.9867 113.479 41.1201C111.195 43.2347 108.438 44.443 105.21 44.7451ZM96.2607 11.8369C96.0342 12.6299 95.9964 13.6966 96.1475 15.0371C96.3174 16.3587 96.6761 17.1045 97.2236 17.2744C98.262 17.6143 99.3288 17.416 100.424 16.6797C101.538 15.9434 102.095 15.0182 102.095 13.9043C102.095 13.168 101.774 12.4977 101.132 11.8936C100.509 11.2894 99.5459 10.9779 98.2432 10.959C97.0726 10.959 96.4118 11.2516 96.2607 11.8369ZM96.8555 33.332C97.3086 34.3516 98.6774 34.5498 100.962 33.9268C103.246 33.2848 104.219 32.001 103.879 30.0752C103.633 28.6781 102.765 27.6019 101.273 26.8467C99.7819 26.0726 98.4131 25.9688 97.167 26.5352C96.5251 26.8372 96.1947 27.8096 96.1758 29.4521C96.1758 31.0758 96.4023 32.3691 96.8555 33.332ZM140.29 15.5469C139.894 15.5846 139.535 15.4808 139.214 15.2354C138.817 14.9521 138.61 14.6406 138.591 14.3008C138.591 13.9609 138.402 13.64 138.024 13.3379C137.08 12.6016 135.882 12.7337 134.428 13.7344C132.974 14.735 133.578 15.5091 136.24 16.0566C136.523 16.1133 136.835 16.1794 137.175 16.2549C137.515 16.3115 137.864 16.3682 138.223 16.4248C142.565 17.18 145.992 18.4733 148.503 20.3047C151.599 22.5703 153.374 25.5345 153.827 29.1973C154.299 32.8411 153.289 36.1074 150.797 38.9961C147.852 42.4134 143.858 44.377 138.817 44.8867C133.795 45.3776 129.453 44.3203 125.79 41.7148C122.637 39.5059 120.664 36.721 119.871 33.3604C119.531 31.7744 120.324 30.5472 122.25 29.6787C123.1 29.2822 124.034 28.999 125.054 28.8291C126.092 28.6592 127.083 28.5648 128.027 28.5459C129.576 28.5459 130.973 28.7347 132.219 29.1123C133.465 29.471 134.173 29.9902 134.343 30.6699C134.362 30.8021 134.409 30.9342 134.484 31.0664C134.692 31.5384 135.089 31.8877 135.674 32.1143C136.372 32.3975 137.184 32.3597 138.109 32.001C139.053 31.6234 139.327 30.9909 138.931 30.1035C138.723 29.6882 138.157 29.3483 137.231 29.084C135.022 28.4421 132.823 27.9606 130.633 27.6396C128.443 27.2998 126.366 26.403 124.402 24.9492C122.986 23.9297 121.872 22.5326 121.061 20.7578C120.268 18.9831 120.003 16.6325 120.268 13.7061C120.645 9.76009 122.543 6.5127 125.96 3.96387C127.961 2.47233 130.246 1.48112 132.813 0.990234C135.381 0.480469 137.873 0.480469 140.29 0.990234C142.707 1.48112 144.878 2.48177 146.804 3.99219C148.748 5.48372 150.089 7.47559 150.825 9.96777C151.108 10.9307 150.835 11.7614 150.004 12.46C149.192 13.1396 148.173 13.7061 146.945 14.1592C145.718 14.6123 144.463 14.9521 143.179 15.1787C141.895 15.4053 140.932 15.528 140.29 15.5469ZM184.659 16.3965C183.828 16.4342 182.998 16.4814 182.167 16.5381C181.355 16.5947 180.562 16.6891 179.788 16.8213C177.806 17.2178 176.003 18.1618 174.379 19.6533C172.774 21.126 172.189 22.9574 172.623 25.1475C172.831 26.1481 173.303 26.9316 174.039 27.498C175.21 28.4232 176.767 28.8669 178.712 28.8291C180.657 28.7725 182.337 28.5837 183.753 28.2627C184.546 27.9984 185.32 28.0361 186.075 28.376C186.774 28.7158 187.406 29.3011 187.973 30.1318C188.86 31.4912 189.464 33.3037 189.785 35.5693C190.125 37.835 190.002 39.7041 189.417 41.1768C188.945 42.3851 188.228 43.1025 187.265 43.3291C184.168 44.4619 180.76 45.0189 177.041 45C173.322 44.9622 169.989 44.2731 167.044 42.9326C163.06 41.139 160.011 38.4958 157.896 35.0029C155.782 31.5101 154.942 27.5264 155.376 23.0518C156.112 15.9717 158.916 10.4398 163.787 6.45605C168.658 2.47233 174.719 0.867513 181.969 1.6416C183.177 1.77376 184.244 2.40625 185.169 3.53906C186.075 4.67188 186.821 6.64486 187.406 9.45801C188.01 12.2712 187.661 14.3291 186.358 15.6318C185.868 16.1227 185.301 16.3776 184.659 16.3965ZM221.495 26.8184C223.421 28.4232 225.111 29.9808 226.564 31.4912C228.018 33.0016 228.755 34.1344 228.773 34.8896C228.773 35.4372 228.462 36.249 227.839 37.3252C227.216 38.4014 226.498 39.4775 225.687 40.5537C224.875 41.6299 224.091 42.5739 223.336 43.3857C222.581 44.1976 222.062 44.6035 221.778 44.6035C220.551 44.849 218.757 44.2165 216.397 42.7061C214.056 41.1768 212.168 40.1667 210.733 39.6758C209.336 39.2415 208.581 39.4209 208.468 40.2139C208.487 41.5732 208.364 42.6117 208.1 43.3291C207.835 44.0465 206.91 44.4902 205.324 44.6602C203.512 44.849 201.435 44.9528 199.094 44.9717C196.771 44.9906 195.299 44.9339 194.676 44.8018C194.242 44.7262 193.892 44.4808 193.628 44.0654C193.25 43.5557 192.844 41.2145 192.41 37.042C191.976 32.8695 191.636 28.3477 191.391 23.4766C191.145 18.6055 191.032 14.1309 191.051 10.0527C191.089 5.97461 191.391 3.77507 191.957 3.4541C194.015 2.30241 196.771 1.47168 200.227 0.961914C203.682 0.452148 207.118 0.546549 210.535 1.24512C213.971 1.9248 217.039 3.34082 219.739 5.49316C222.458 7.62663 224.119 10.7607 224.724 14.8955C225.498 20.4085 224.422 24.3828 221.495 26.8184ZM207.25 21.4375C208.685 21.2865 209.799 20.7578 210.592 19.8516C211.385 18.9453 211.772 18.0013 211.753 17.0195C211.753 16.0378 211.3 15.1882 210.394 14.4707C209.506 13.7533 208.118 13.4984 206.23 13.7061C204.682 13.876 204.069 15.2542 204.39 17.8408C204.729 20.4085 205.683 21.6074 207.25 21.4375ZM248.334 43.584C247.938 44.3392 245.965 44.7923 242.415 44.9434C238.866 45.0755 236.354 44.8301 234.882 44.207C234.221 43.9238 233.598 41.9792 233.013 38.373C232.427 34.7669 231.927 30.7171 231.512 26.2236C231.096 21.7301 230.794 17.4066 230.605 13.2529C230.417 9.0804 230.407 6.29557 230.577 4.89844C230.709 3.74674 231.767 2.87826 233.749 2.29297C235.75 1.6888 237.931 1.3584 240.291 1.30176C242.67 1.22624 244.841 1.41504 246.805 1.86816C248.787 2.32129 249.835 3.0293 249.948 3.99219C250.25 6.71094 250.411 10.1943 250.43 14.4424C250.467 18.6904 250.401 22.8818 250.231 27.0166C250.062 31.1514 249.807 34.8047 249.467 37.9766C249.127 41.1484 248.749 43.0176 248.334 43.584ZM287.379 21.2393C286.718 25.4307 284.811 28.9329 281.658 31.7461C278.505 34.5592 274.739 35.7676 270.358 35.3711C270.188 37.5423 269.981 39.3737 269.735 40.8652C269.509 42.3568 269.254 43.2725 268.971 43.6123C268.574 44.3486 266.639 44.7923 263.165 44.9434C259.691 45.0944 257.237 44.8584 255.802 44.2354C255.16 43.9521 254.584 42.0641 254.074 38.5713C253.583 35.0596 253.177 31.1136 252.856 26.7334C252.554 22.3532 252.356 18.1429 252.262 14.1025C252.167 10.0433 252.186 7.32454 252.318 5.94629C252.451 4.66243 253.536 3.68066 255.575 3.00098C257.633 2.32129 260.012 1.89648 262.712 1.72656C265.412 1.55664 268.131 1.62272 270.868 1.9248C273.606 2.20801 275.739 2.67057 277.269 3.3125C285.33 6.71094 288.701 12.6865 287.379 21.2393ZM275.201 17.8408C274.767 15.8018 273.389 14.6595 271.066 14.4141C270.632 14.3952 270.283 14.4046 270.019 14.4424C268.206 14.7633 267.385 16.0566 267.555 18.3223C267.725 20.5879 268.329 22.0605 269.367 22.7402C269.82 23.0612 270.509 23.1367 271.435 22.9668C272.813 22.7591 273.842 22.1738 274.521 21.2109C275.22 20.2292 275.447 19.1058 275.201 17.8408ZM319.315 43.6123C319.108 43.9899 318.419 44.292 317.248 44.5186C316.077 44.7451 314.756 44.8867 313.283 44.9434C311.829 45 310.385 44.9717 308.95 44.8584C307.515 44.7451 306.43 44.528 305.693 44.207C304.919 43.8672 304.221 41.0918 303.598 35.8809C302.993 30.651 302.531 25.3646 302.21 20.0215C299.416 19.9648 297.008 19.8232 294.988 19.5967C292.968 19.3512 291.854 19.002 291.646 18.5488C291.288 17.8314 290.986 16.6797 290.74 15.0938C290.495 13.4889 290.334 11.8558 290.259 10.1943C290.183 8.514 290.193 7.00358 290.287 5.66309C290.4 4.30371 290.646 3.52018 291.023 3.3125C291.571 2.87826 293.421 2.52897 296.574 2.26465C299.727 2.00033 303.352 1.82096 307.449 1.72656C311.546 1.61328 315.709 1.58496 319.938 1.6416C324.168 1.67936 327.642 1.7832 330.36 1.95312C331.437 2.02865 332.173 2.95378 332.569 4.72852C332.966 6.50326 333.107 8.44792 332.994 10.5625C332.881 12.6771 332.55 14.6217 332.003 16.3965C331.474 18.1712 330.823 19.0869 330.049 19.1436C329.331 19.2568 328.18 19.3701 326.594 19.4834C325.008 19.5778 323.224 19.6628 321.241 19.7383C321.185 25.0625 320.986 30.1979 320.646 35.1445C320.307 40.0723 319.863 42.8949 319.315 43.6123ZM352.951 43.584C352.555 44.3392 350.582 44.7923 347.032 44.9434C343.483 45.0755 340.972 44.8301 339.499 44.207C338.838 43.9238 338.215 41.9792 337.63 38.373C337.045 34.7669 336.544 30.7171 336.129 26.2236C335.714 21.7301 335.411 17.4066 335.223 13.2529C335.034 9.0804 335.024 6.29557 335.194 4.89844C335.326 3.74674 336.384 2.87826 338.366 2.29297C340.368 1.6888 342.548 1.3584 344.908 1.30176C347.287 1.22624 349.458 1.41504 351.422 1.86816C353.404 2.32129 354.452 3.0293 354.565 3.99219C354.868 6.71094 355.028 10.1943 355.047 14.4424C355.085 18.6904 355.019 22.8818 354.849 27.0166C354.679 31.1514 354.424 34.8047 354.084 37.9766C353.744 41.1484 353.367 43.0176 352.951 43.584ZM400.096 26.3936C399.114 32.3408 396.225 37.1364 391.43 40.7803C386.653 44.4242 381.093 45.7174 374.749 44.6602C368.632 43.6406 363.817 40.7236 360.306 35.9092C356.794 31.0947 355.51 25.7611 356.454 19.9082C357.341 14.4707 359.966 9.91113 364.327 6.22949C368.707 2.52897 373.796 0.933594 379.592 1.44336C386.577 2.04753 392.006 4.7002 395.876 9.40137C399.765 14.1025 401.172 19.7666 400.096 26.3936ZM383.84 23.9863C384.104 22.3626 383.793 20.9844 382.905 19.8516C382.037 18.6999 380.762 17.9824 379.082 17.6992C377.496 17.4349 376.099 17.7842 374.891 18.7471C373.682 19.6911 372.965 20.89 372.738 22.3438C372.436 24.0996 372.927 25.6572 374.211 27.0166C375.495 28.3571 377.081 28.9141 378.969 28.6875C380.271 28.5553 381.357 28.0456 382.226 27.1582C383.094 26.2708 383.632 25.2135 383.84 23.9863ZM443.275 43.584C443.049 44.0371 442.369 44.3675 441.236 44.5752C440.104 44.7829 438.848 44.9056 437.47 44.9434C436.11 44.9811 434.798 44.9434 433.533 44.8301C432.287 44.7168 431.438 44.5563 430.984 44.3486C430.342 44.0654 429.408 43.3197 428.181 42.1113C426.953 40.8841 425.698 39.5625 424.414 38.1465C423.13 36.7116 421.96 35.3617 420.902 34.0967C419.845 32.8317 419.175 32.001 418.892 31.6045C418.608 34.9652 418.316 37.8538 418.014 40.2705C417.712 42.6683 417.325 43.9805 416.853 44.207C415.455 44.849 413.048 45.0944 409.631 44.9434C406.232 44.7923 404.354 44.3392 403.995 43.584C403.58 43.0176 403.221 41.1201 402.919 37.8916C402.636 34.6631 402.438 30.9531 402.324 26.7617C402.23 22.5703 402.239 18.3223 402.353 14.0176C402.466 9.71289 402.74 6.20117 403.174 3.48242C403.249 2.9349 403.91 2.51953 405.156 2.23633C406.421 1.93424 407.866 1.76432 409.489 1.72656C411.132 1.66992 412.774 1.736 414.417 1.9248C416.078 2.11361 417.353 2.39681 418.24 2.77441C419.543 3.3597 421.167 4.91732 423.111 7.44727C425.075 9.97721 426.5 11.8936 427.388 13.1963C427.331 11.1761 427.265 9.39193 427.189 7.84375C427.133 6.27669 427.142 5.125 427.218 4.38867C427.256 3.48242 428.124 2.79329 429.823 2.32129C431.522 1.84928 433.382 1.58496 435.402 1.52832C437.441 1.4528 439.311 1.58496 441.01 1.9248C442.728 2.26465 443.634 2.78385 443.729 3.48242C444.012 6.25781 444.182 9.80729 444.238 14.1309C444.314 18.4544 444.314 22.7119 444.238 26.9033C444.182 31.0947 444.059 34.7952 443.87 38.0049C443.681 41.1956 443.483 43.0553 443.275 43.584ZM494.064 21.2393C493.404 25.4307 491.497 28.9329 488.344 31.7461C485.191 34.5592 481.424 35.7676 477.044 35.3711C476.874 37.5423 476.666 39.3737 476.421 40.8652C476.194 42.3568 475.939 43.2725 475.656 43.6123C475.26 44.3486 473.325 44.7923 469.851 44.9434C466.377 45.0944 463.922 44.8584 462.487 44.2354C461.845 43.9521 461.27 42.0641 460.76 38.5713C460.269 35.0596 459.863 31.1136 459.542 26.7334C459.24 22.3532 459.042 18.1429 458.947 14.1025C458.853 10.0433 458.872 7.32454 459.004 5.94629C459.136 4.66243 460.222 3.68066 462.261 3.00098C464.319 2.32129 466.698 1.89648 469.397 1.72656C472.097 1.55664 474.816 1.62272 477.554 1.9248C480.291 2.20801 482.425 2.67057 483.954 3.3125C492.016 6.71094 495.386 12.6865 494.064 21.2393ZM481.887 17.8408C481.452 15.8018 480.074 14.6595 477.752 14.4141C477.318 14.3952 476.968 14.4046 476.704 14.4424C474.892 14.7633 474.07 16.0566 474.24 18.3223C474.41 20.5879 475.014 22.0605 476.053 22.7402C476.506 23.0612 477.195 23.1367 478.12 22.9668C479.498 22.7591 480.527 22.1738 481.207 21.2109C481.906 20.2292 482.132 19.1058 481.887 17.8408ZM514.163 3.22754C514.257 4.11491 514.324 5.76693 514.361 8.18359C514.418 10.6003 514.465 13.1113 514.503 15.7168C514.541 18.3223 514.578 20.6823 514.616 22.7969C514.673 24.8926 514.748 26.0726 514.843 26.3369C514.975 26.7712 515.598 27.0166 516.712 27.0732C517.845 27.111 519.1 27.0921 520.479 27.0166C521.876 26.9411 523.216 26.8656 524.5 26.79C525.784 26.6956 526.662 26.724 527.134 26.875C527.813 27.1016 528.361 28.0928 528.776 29.8486C529.211 31.5856 529.484 33.4736 529.598 35.5127C529.73 37.5329 529.683 39.402 529.456 41.1201C529.229 42.8193 528.795 43.7445 528.153 43.8955C527.19 44.141 525.265 44.377 522.376 44.6035C519.506 44.8112 516.466 44.9339 513.257 44.9717C510.047 45.0094 507.074 44.915 504.336 44.6885C501.598 44.4619 499.909 44.0088 499.267 43.3291C498.625 42.6494 498.124 40.4499 497.766 36.7305C497.426 33.0111 497.19 28.9235 497.058 24.4678C496.944 20.012 496.897 15.7734 496.916 11.752C496.954 7.73047 497.048 5.06836 497.199 3.76562C497.275 2.99154 498.19 2.42513 499.946 2.06641C501.702 1.70768 503.618 1.52832 505.695 1.52832C507.772 1.50944 509.679 1.65104 511.416 1.95312C513.172 2.25521 514.088 2.68001 514.163 3.22754ZM531.062 44.0371C530.703 43.6595 530.514 43.1969 530.495 42.6494C530.457 40.818 530.778 38.0615 531.458 34.3799C532.138 30.6982 532.987 26.875 534.007 22.9102C535.026 18.9264 536.103 15.1976 537.235 11.7236C538.387 8.24967 539.388 5.80469 540.237 4.38867C540.577 3.84115 541.568 3.35026 543.211 2.91602C544.872 2.46289 546.704 2.15137 548.705 1.98145C550.706 1.81152 552.632 1.82096 554.482 2.00977C556.333 2.17969 557.626 2.60449 558.362 3.28418C559.42 4.30371 560.666 6.54102 562.101 9.99609C563.554 13.4512 564.97 17.2178 566.349 21.2959C567.727 25.3551 568.964 29.2539 570.059 32.9922C571.154 36.7305 571.881 39.3737 572.239 40.9219C572.485 42.0547 572.409 42.8477 572.013 43.3008C571.616 43.735 570.927 44.0371 569.945 44.207C568.284 44.4902 566.216 44.7074 563.743 44.8584C561.289 44.9906 559.75 45.0189 559.127 44.9434C558.882 44.9056 558.655 44.8206 558.447 44.6885C557.768 44.2731 557.107 43.0837 556.465 41.1201C555.842 39.1377 555.228 37.7783 554.624 37.042C554.265 36.6077 553.793 36.3529 553.208 36.2773L548.563 36.249C547.11 36.2868 546.166 36.7682 545.731 37.6934C545.165 38.8828 544.523 40.2044 543.806 41.6582C543.088 43.112 542.56 44.0088 542.22 44.3486C542.05 44.5563 541.795 44.6979 541.455 44.7734C540.681 44.9434 538.85 44.9906 535.961 44.915C533.091 44.8206 531.458 44.528 531.062 44.0371ZM549.413 19.0586C548.79 19.7194 548.167 20.8333 547.544 22.4004C546.94 23.9486 546.723 24.9681 546.893 25.459C547.176 26.2897 548.394 26.6673 550.546 26.5918C552.717 26.4974 553.897 25.9688 554.086 25.0059C554.199 24.4206 553.633 23.0895 552.387 21.0127C551.141 18.917 550.149 18.2656 549.413 19.0586ZM614.201 43.584C613.975 44.0371 613.295 44.3675 612.162 44.5752C611.029 44.7829 609.774 44.9056 608.396 44.9434C607.036 44.9811 605.724 44.9434 604.459 44.8301C603.213 44.7168 602.363 44.5563 601.91 44.3486C601.268 44.0654 600.334 43.3197 599.106 42.1113C597.879 40.8841 596.624 39.5625 595.34 38.1465C594.056 36.7116 592.885 35.3617 591.828 34.0967C590.771 32.8317 590.101 32.001 589.817 31.6045C589.534 34.9652 589.242 37.8538 588.939 40.2705C588.637 42.6683 588.25 43.9805 587.778 44.207C586.381 44.849 583.974 45.0944 580.557 44.9434C577.158 44.7923 575.28 44.3392 574.921 43.584C574.506 43.0176 574.147 41.1201 573.845 37.8916C573.562 34.6631 573.363 30.9531 573.25 26.7617C573.156 22.5703 573.165 18.3223 573.278 14.0176C573.392 9.71289 573.665 6.20117 574.1 3.48242C574.175 2.9349 574.836 2.51953 576.082 2.23633C577.347 1.93424 578.791 1.76432 580.415 1.72656C582.058 1.66992 583.7 1.736 585.343 1.9248C587.004 2.11361 588.279 2.39681 589.166 2.77441C590.469 3.3597 592.092 4.91732 594.037 7.44727C596.001 9.97721 597.426 11.8936 598.313 13.1963C598.257 11.1761 598.191 9.39193 598.115 7.84375C598.059 6.27669 598.068 5.125 598.144 4.38867C598.181 3.48242 599.05 2.79329 600.749 2.32129C602.448 1.84928 604.308 1.58496 606.328 1.52832C608.367 1.4528 610.236 1.58496 611.936 1.9248C613.654 2.26465 614.56 2.78385 614.654 3.48242C614.938 6.25781 615.107 9.80729 615.164 14.1309C615.24 18.4544 615.24 22.7119 615.164 26.9033C615.107 31.0947 614.985 34.7952 614.796 38.0049C614.607 41.1956 614.409 43.0553 614.201 43.584ZM636.905 15.5469C636.509 15.5846 636.15 15.4808 635.829 15.2354C635.433 14.9521 635.225 14.6406 635.206 14.3008C635.206 13.9609 635.017 13.64 634.64 13.3379C633.696 12.6016 632.497 12.7337 631.043 13.7344C629.589 14.735 630.193 15.5091 632.855 16.0566C633.139 16.1133 633.45 16.1794 633.79 16.2549C634.13 16.3115 634.479 16.3682 634.838 16.4248C639.18 17.18 642.607 18.4733 645.118 20.3047C648.215 22.5703 649.989 25.5345 650.442 29.1973C650.914 32.8411 649.904 36.1074 647.412 38.9961C644.467 42.4134 640.474 44.377 635.433 44.8867C630.41 45.3776 626.068 44.3203 622.405 41.7148C619.252 39.5059 617.279 36.721 616.486 33.3604C616.146 31.7744 616.939 30.5472 618.865 29.6787C619.715 29.2822 620.649 28.999 621.669 28.8291C622.707 28.6592 623.699 28.5648 624.643 28.5459C626.191 28.5459 627.588 28.7347 628.834 29.1123C630.08 29.471 630.788 29.9902 630.958 30.6699C630.977 30.8021 631.024 30.9342 631.1 31.0664C631.307 31.5384 631.704 31.8877 632.289 32.1143C632.988 32.3975 633.799 32.3597 634.725 32.001C635.669 31.6234 635.942 30.9909 635.546 30.1035C635.338 29.6882 634.772 29.3483 633.847 29.084C631.638 28.4421 629.438 27.9606 627.248 27.6396C625.058 27.2998 622.981 26.403 621.018 24.9492C619.602 23.9297 618.488 22.5326 617.676 20.7578C616.883 18.9831 616.618 16.6325 616.883 13.7061C617.26 9.76009 619.158 6.5127 622.575 3.96387C624.576 2.47233 626.861 1.48112 629.429 0.990234C631.996 0.480469 634.489 0.480469 636.905 0.990234C639.322 1.48112 641.493 2.48177 643.419 3.99219C645.364 5.48372 646.704 7.47559 647.44 9.96777C647.724 10.9307 647.45 11.7614 646.619 12.46C645.807 13.1396 644.788 13.7061 643.561 14.1592C642.333 14.6123 641.078 14.9521 639.794 15.1787C638.51 15.4053 637.547 15.528 636.905 15.5469Z" fill="#183282"/>
</svg>
