<svg width="532" height="47" viewBox="0 0 532 47" fill="none" xmlns="http://www.w3.org/2000/svg">
<path d="M49.2695 43.5273C49.1185 43.9427 48.2878 44.2826 46.7773 44.5469C45.2669 44.7923 43.5771 44.9339 41.708 44.9717C39.8389 44.9906 38.0452 44.915 36.3271 44.7451C34.6279 44.5752 33.5329 44.2637 33.042 43.8105C32.2679 43.2064 31.2956 42.1774 30.125 40.7236C28.9733 39.2699 28.0859 38.1276 27.4629 37.2969C26.7266 38.3164 25.8958 39.4587 24.9707 40.7236C24.0456 41.9886 23.1204 43.0176 22.1953 43.8105C21.6855 44.2259 20.5811 44.5186 18.8818 44.6885C17.2015 44.8395 15.4268 44.8962 13.5576 44.8584C11.7074 44.8206 10.0176 44.6885 8.48828 44.4619C6.97786 44.2165 6.14714 43.9049 5.99609 43.5273C4.86328 40.8464 3.92871 37.3724 3.19238 33.1055C2.45605 28.8385 1.88965 24.6188 1.49316 20.4463C1.11556 16.2738 0.917318 12.5827 0.898438 9.37305C0.898438 6.14453 1.04948 4.22819 1.35156 3.62402C1.48372 3.24642 2.14453 2.8877 3.33398 2.54785C4.52344 2.18913 5.88281 1.91536 7.41211 1.72656C8.94141 1.53776 10.4613 1.4528 11.9717 1.47168C13.4821 1.47168 14.6243 1.6416 15.3984 1.98145C16.1348 2.32129 16.805 4.56803 17.4092 8.72168C18.0322 12.8753 18.6836 17.3027 19.3633 22.0039C19.9108 21.4186 21.223 19.9837 23.2998 17.6992C25.3766 15.4147 26.7832 14.2441 27.5195 14.1875C28.1803 14.1309 29.4453 15.3014 31.3145 17.6992C33.2025 20.0781 34.3636 21.5319 34.7979 22.0605C35.3076 17.3594 35.8551 12.9225 36.4404 8.75C37.0257 4.57747 37.6865 2.32129 38.4229 1.98145C39.1592 1.6416 40.2637 1.47168 41.7363 1.47168C43.2279 1.4528 44.7194 1.53776 46.2109 1.72656C47.7214 1.91536 49.0713 2.18913 50.2607 2.54785C51.4502 2.8877 52.1204 3.24642 52.2715 3.62402C52.6113 4.22819 52.8096 6.13509 52.8662 9.34473C52.9229 12.5355 52.8285 16.2171 52.583 20.3896C52.3376 24.5433 51.9316 28.763 51.3652 33.0488C50.8177 37.3158 50.1191 40.8086 49.2695 43.5273ZM71.1807 43.584C70.8219 44.3203 69.0378 44.7734 65.8281 44.9434C62.6374 45.0944 60.3623 44.8584 59.0029 44.2354C58.3988 43.9521 57.804 42.0169 57.2188 38.4297C56.6523 34.8236 56.152 30.7832 55.7178 26.3086C55.3024 21.834 54.9814 17.5293 54.7549 13.3945C54.5472 9.24089 54.5 6.46549 54.6133 5.06836C54.7266 3.91667 55.68 3.03874 57.4736 2.43457C59.2673 1.8304 61.2308 1.5 63.3643 1.44336C65.4977 1.36784 67.4613 1.55664 69.2549 2.00977C71.0485 2.46289 72.002 3.16146 72.1152 4.10547C72.2852 5.71029 72.4173 7.61719 72.5117 9.82617C72.625 12.0163 72.7005 14.3291 72.7383 16.7646C74.3431 16.6891 76.0234 16.6325 77.7793 16.5947C77.7038 14.1781 77.666 11.8936 77.666 9.74121C77.6849 7.56999 77.751 5.69141 77.8643 4.10547C77.9209 3.14258 78.8366 2.43457 80.6113 1.98145C82.3861 1.50944 84.3402 1.30176 86.4736 1.3584C88.6071 1.41504 90.5801 1.74544 92.3926 2.34961C94.224 2.9349 95.2246 3.80339 95.3945 4.95508C95.5833 6.35221 95.6494 9.1276 95.5928 13.2812C95.555 17.416 95.4134 21.7301 95.168 26.2236C94.9414 30.6982 94.611 34.7292 94.1768 38.3164C93.7614 41.9036 93.2705 43.8389 92.7041 44.1221C91.3825 44.764 89.1169 45.0189 85.9072 44.8867C82.7165 44.7357 80.9229 44.292 80.5264 43.5557C80.2243 43.1592 79.9222 42.0169 79.6201 40.1289C79.318 38.222 79.0443 35.9092 78.7988 33.1904C77.7415 33.3981 76.6654 33.5869 75.5703 33.7568C74.4941 33.9079 73.4368 34.0495 72.3984 34.1816C72.2474 36.6549 72.068 38.7412 71.8604 40.4404C71.6527 42.1396 71.4261 43.1875 71.1807 43.584ZM141.52 12.8564C141.387 13.7249 140.122 15.6318 137.725 18.5771C135.346 21.5036 132.485 24.5811 129.144 27.8096C128.955 31.7744 128.605 35.3333 128.096 38.4863C127.605 41.6393 127.152 43.4896 126.736 44.0371C126.51 44.3014 125.736 44.5091 124.414 44.6602C123.111 44.8112 121.676 44.9056 120.109 44.9434C118.561 44.9811 117.098 44.9811 115.72 44.9434C114.36 44.9056 113.539 44.8018 113.256 44.6318C112.633 44.292 111.981 42.555 111.302 39.4209C110.641 36.2679 110.131 32.7184 109.772 28.7725C106.28 25.4873 103.259 22.3343 100.71 19.3135C98.18 16.2926 96.8584 14.3291 96.7451 13.4229C96.613 12.8942 96.9339 12.0068 97.708 10.7607C98.4821 9.51465 99.4167 8.25911 100.512 6.99414C101.607 5.71029 102.702 4.57747 103.797 3.5957C104.911 2.61393 105.713 2.10417 106.204 2.06641C107.299 2.00977 109.036 2.95378 111.415 4.89844C113.813 6.82422 116.371 9.08984 119.09 11.6953C121.827 9.08984 124.386 6.80534 126.765 4.8418C129.162 2.87826 130.928 1.93424 132.061 2.00977C132.533 2.04753 133.316 2.53841 134.411 3.48242C135.525 4.40755 136.63 5.47428 137.725 6.68262C138.839 7.89095 139.783 9.08984 140.557 10.2793C141.35 11.4688 141.671 12.3278 141.52 12.8564ZM174.495 29.9336C177.799 29.8958 180.782 29.8014 183.444 29.6504C186.106 29.4993 187.674 29.6787 188.146 30.1885C188.655 30.6038 189.023 32.4069 189.25 35.5977C189.495 38.7884 189.41 41.1012 188.995 42.5361C188.806 43.1403 187.324 43.6406 184.549 44.0371C181.773 44.4336 178.658 44.7074 175.203 44.8584C171.748 44.9906 168.435 45.0094 165.263 44.915C162.091 44.8206 160.023 44.5658 159.061 44.1504C158.494 43.9238 158.022 42.404 157.645 39.5908C157.286 36.7588 157.003 33.4548 156.795 29.6787C156.587 25.8838 156.465 22.0228 156.427 18.0957C156.389 14.1497 156.427 10.9401 156.54 8.4668C156.54 7.10742 156.653 5.87077 156.88 4.75684C157.106 3.62402 157.456 2.91602 157.928 2.63281C158.4 2.34961 160.061 2.10417 162.912 1.89648C165.763 1.6888 168.84 1.56608 172.145 1.52832C175.449 1.47168 178.507 1.52832 181.32 1.69824C184.133 1.84928 185.748 2.13249 186.163 2.54785C186.673 2.96322 186.956 4.60579 187.013 7.47559C187.088 10.3265 186.918 12.4788 186.503 13.9326C186.295 14.6123 184.964 15.0371 182.51 15.207C180.074 15.3581 177.223 15.4902 173.957 15.6035C173.957 15.8301 173.966 16.0944 173.985 16.3965C174.004 16.6986 174.023 16.9629 174.042 17.1895C176.175 17.2272 177.912 17.3877 179.253 17.6709C179.574 17.7653 179.885 18.3317 180.188 19.3701C180.508 20.3896 180.726 21.513 180.839 22.7402C180.971 23.9486 180.971 25.0719 180.839 26.1104C180.707 27.1488 180.376 27.7057 179.848 27.7812C179.47 27.8945 178.781 27.9984 177.78 28.0928C176.799 28.1683 175.703 28.2249 174.495 28.2627C174.495 28.5081 174.495 28.7913 174.495 29.1123C174.495 29.4333 174.495 29.707 174.495 29.9336ZM217.788 16.9062C219.657 14.1309 221.46 11.4782 223.197 8.94824C224.953 6.41829 226.501 4.51139 227.842 3.22754C228.427 2.66113 229.569 2.24577 231.269 1.98145C232.968 1.71712 234.733 1.5944 236.564 1.61328C238.415 1.63216 240.086 1.77376 241.577 2.03809C243.088 2.30241 243.956 2.67057 244.183 3.14258C244.541 3.97331 244.825 6.42773 245.032 10.5059C245.24 14.5651 245.344 18.9548 245.344 23.6748C245.344 28.3949 245.23 32.7751 245.004 36.8154C244.777 40.8369 244.409 43.2158 243.899 43.9521C243.503 44.4053 241.577 44.6979 238.122 44.8301C234.667 44.9434 232.241 44.8584 230.844 44.5752C230.277 44.4619 229.758 42.8288 229.286 39.6758C228.814 36.5228 228.493 33.332 228.323 30.1035C227.946 30.5 227.266 31.208 226.284 32.2275C225.321 33.2471 224.283 34.2949 223.169 35.3711C222.055 36.4473 220.979 37.4007 219.94 38.2314C218.921 39.0622 218.166 39.4775 217.675 39.4775C217.184 39.4775 216.438 39.0811 215.438 38.2881C214.456 37.4951 213.427 36.5889 212.351 35.5693C211.293 34.5309 210.293 33.5208 209.349 32.5391C208.424 31.5573 207.782 30.8776 207.423 30.5C207.196 33.5208 206.856 36.5794 206.403 39.6758C205.95 42.7721 205.459 44.4053 204.931 44.5752C204.232 44.7829 203.194 44.9056 201.815 44.9434C200.437 44.9811 199.04 44.9717 197.624 44.915C196.208 44.8584 194.934 44.7451 193.801 44.5752C192.687 44.3864 192.054 44.1787 191.903 43.9521C191.394 43.2347 191.007 40.818 190.742 36.7021C190.478 32.5863 190.336 28.1494 190.317 23.3916C190.299 18.6149 190.374 14.1969 190.544 10.1377C190.714 6.05957 190.997 3.70898 191.394 3.08594C191.677 2.63281 192.574 2.27409 194.084 2.00977C195.594 1.74544 197.256 1.61328 199.068 1.61328C200.881 1.5944 202.618 1.71712 204.279 1.98145C205.96 2.24577 207.102 2.66113 207.706 3.22754C209.028 4.51139 210.576 6.41829 212.351 8.94824C214.144 11.4782 215.957 14.1309 217.788 16.9062ZM290.421 26.3936C289.439 32.3408 286.55 37.1364 281.755 40.7803C276.978 44.4242 271.418 45.7174 265.074 44.6602C258.957 43.6406 254.143 40.7236 250.631 35.9092C247.119 31.0947 245.835 25.7611 246.779 19.9082C247.667 14.4707 250.291 9.91113 254.652 6.22949C259.033 2.52897 264.121 0.933594 269.917 1.44336C276.903 2.04753 282.331 4.7002 286.201 9.40137C290.09 14.1025 291.497 19.7666 290.421 26.3936ZM274.165 23.9863C274.429 22.3626 274.118 20.9844 273.23 19.8516C272.362 18.6999 271.088 17.9824 269.407 17.6992C267.821 17.4349 266.424 17.7842 265.216 18.7471C264.007 19.6911 263.29 20.89 263.063 22.3438C262.761 24.0996 263.252 25.6572 264.536 27.0166C265.82 28.3571 267.406 28.9141 269.294 28.6875C270.597 28.5553 271.682 28.0456 272.551 27.1582C273.419 26.2708 273.957 25.2135 274.165 23.9863ZM315.674 44.7451C314.994 44.8206 313.663 44.8867 311.681 44.9434C309.717 44.9811 307.603 45 305.337 45C303.09 44.9811 300.966 44.915 298.965 44.8018C296.964 44.6696 295.614 44.4525 294.915 44.1504C294.254 43.8861 293.744 41.9603 293.386 38.373C293.027 34.7858 292.791 30.7643 292.678 26.3086C292.564 21.834 292.555 17.5293 292.649 13.3945C292.744 9.24089 292.923 6.46549 293.188 5.06836C293.357 4.18099 294.301 3.39746 296.02 2.71777C297.757 2.03809 299.852 1.57552 302.307 1.33008C304.761 1.06576 307.367 1.06576 310.123 1.33008C312.898 1.5944 315.419 2.21745 317.685 3.19922C320.989 4.67188 323.198 7.08854 324.312 10.4492C325.425 13.8099 325.038 16.9629 323.15 19.9082L323.235 19.9648C325.728 21.4753 327.37 23.4388 328.163 25.8555C328.975 28.2721 329.06 30.821 328.418 33.502C327.719 36.4473 326.228 38.9867 323.943 41.1201C321.659 43.2347 318.902 44.443 315.674 44.7451ZM306.725 11.8369C306.498 12.6299 306.46 13.6966 306.611 15.0371C306.781 16.3587 307.14 17.1045 307.688 17.2744C308.726 17.6143 309.793 17.416 310.888 16.6797C312.002 15.9434 312.559 15.0182 312.559 13.9043C312.559 13.168 312.238 12.4977 311.596 11.8936C310.973 11.2894 310.01 10.9779 308.707 10.959C307.536 10.959 306.876 11.2516 306.725 11.8369ZM307.319 33.332C307.772 34.3516 309.141 34.5498 311.426 33.9268C313.71 33.2848 314.683 32.001 314.343 30.0752C314.097 28.6781 313.229 27.6019 311.737 26.8467C310.246 26.0726 308.877 25.9688 307.631 26.5352C306.989 26.8372 306.659 27.8096 306.64 29.4521C306.64 31.0758 306.866 32.3691 307.319 33.332ZM358.089 3.99219C358.108 3.48242 358.872 3.08594 360.383 2.80273C361.893 2.50065 363.564 2.34961 365.396 2.34961C367.246 2.33073 368.973 2.47233 370.578 2.77441C372.202 3.0765 373.155 3.56738 373.438 4.24707C373.835 5.24772 374.109 6.9847 374.26 9.45801C374.43 11.9313 374.458 14.6217 374.345 17.5293C374.25 20.4368 373.995 23.2878 373.58 26.082C373.184 28.8763 372.617 31.0853 371.881 32.709C370.295 36.1829 367.973 39.015 364.914 41.2051C361.874 43.3952 358.391 44.6413 354.464 44.9434C349.517 45.2832 344.91 44.0749 340.644 41.3184C336.377 38.543 333.422 34.8613 331.779 30.2734C331.232 28.7819 330.835 26.639 330.59 23.8447C330.363 21.0505 330.259 18.2184 330.278 15.3486C330.297 12.4788 330.467 9.87337 330.788 7.53223C331.109 5.1722 331.581 3.68066 332.204 3.05762C332.733 2.54785 333.837 2.20801 335.518 2.03809C337.198 1.86816 338.935 1.8304 340.729 1.9248C342.541 2.01921 344.146 2.23633 345.543 2.57617C346.959 2.89714 347.667 3.3125 347.667 3.82227C347.629 5.29492 347.507 7.3623 347.299 10.0244C347.091 12.6676 347.035 15.3109 347.129 17.9541C347.242 20.5785 347.639 22.9007 348.318 24.9209C349.017 26.9222 350.254 28.0173 352.028 28.2061C353.954 28.4326 355.332 27.5547 356.163 25.5723C357.013 23.571 357.56 21.2015 357.806 18.4639C358.07 15.7074 358.155 12.9414 358.061 10.166C357.985 7.39062 357.994 5.33268 358.089 3.99219ZM412.144 32.2559C410.048 37.1836 406.744 40.5632 402.231 42.3945C397.719 44.207 392.971 45.0755 387.986 45C386.287 44.9622 384.645 44.849 383.059 44.6602C381.492 44.4525 380.359 44.1976 379.66 43.8955C378.565 43.4424 377.687 41.1956 377.026 37.1553C376.366 33.096 375.969 28.6592 375.837 23.8447C375.705 19.0303 375.837 14.5462 376.233 10.3926C376.63 6.23893 377.366 3.83171 378.442 3.1709C379.519 2.49121 381.161 1.99089 383.37 1.66992C386.901 1.17904 390.715 1.22624 394.812 1.81152C398.927 2.39681 402.411 3.82227 405.262 6.08789C409 9.10872 411.549 13.1208 412.908 18.124C414.286 23.1084 414.032 27.819 412.144 32.2559ZM390.733 19.5684C390.412 20.6068 390.337 22.1361 390.507 24.1562C390.696 26.1576 391.12 27.3376 391.781 27.6963C392.083 27.8851 392.688 27.9606 393.594 27.9229C395.066 27.8851 396.312 27.5547 397.332 26.9316C398.352 26.2897 398.918 25.3457 399.031 24.0996C399.163 22.5703 398.606 21.2676 397.36 20.1914C396.133 19.1152 394.84 18.5111 393.48 18.3789C392.933 18.3411 392.376 18.3883 391.81 18.5205C391.262 18.6338 390.903 18.9831 390.733 19.5684ZM452.321 32.2559C450.226 37.1836 446.922 40.5632 442.409 42.3945C437.897 44.207 433.148 45.0755 428.164 45C426.465 44.9622 424.822 44.849 423.236 44.6602C421.669 44.4525 420.536 44.1976 419.838 43.8955C418.743 43.4424 417.865 41.1956 417.204 37.1553C416.543 33.096 416.147 28.6592 416.015 23.8447C415.882 19.0303 416.015 14.5462 416.411 10.3926C416.808 6.23893 417.544 3.83171 418.62 3.1709C419.696 2.49121 421.339 1.99089 423.548 1.66992C427.078 1.17904 430.892 1.22624 434.989 1.81152C439.105 2.39681 442.589 3.82227 445.439 6.08789C449.178 9.10872 451.727 13.1208 453.086 18.124C454.464 23.1084 454.209 27.819 452.321 32.2559ZM430.911 19.5684C430.59 20.6068 430.515 22.1361 430.685 24.1562C430.873 26.1576 431.298 27.3376 431.959 27.6963C432.261 27.8851 432.865 27.9606 433.771 27.9229C435.244 27.8851 436.49 27.5547 437.51 26.9316C438.529 26.2897 439.096 25.3457 439.209 24.0996C439.341 22.5703 438.784 21.2676 437.538 20.1914C436.311 19.1152 435.018 18.5111 433.658 18.3789C433.111 18.3411 432.554 18.3883 431.987 18.5205C431.44 18.6338 431.081 18.9831 430.911 19.5684ZM500.91 12.8564C500.778 13.7249 499.513 15.6318 497.115 18.5771C494.736 21.5036 491.876 24.5811 488.534 27.8096C488.345 31.7744 487.996 35.3333 487.486 38.4863C486.995 41.6393 486.542 43.4896 486.127 44.0371C485.9 44.3014 485.126 44.5091 483.805 44.6602C482.502 44.8112 481.067 44.9056 479.5 44.9434C477.952 44.9811 476.489 44.9811 475.11 44.9434C473.751 44.9056 472.93 44.8018 472.646 44.6318C472.023 44.292 471.372 42.555 470.692 39.4209C470.032 36.2679 469.522 32.7184 469.163 28.7725C465.67 25.4873 462.649 22.3343 460.101 19.3135C457.571 16.2926 456.249 14.3291 456.136 13.4229C456.004 12.8942 456.325 12.0068 457.099 10.7607C457.873 9.51465 458.807 8.25911 459.902 6.99414C460.997 5.71029 462.092 4.57747 463.188 3.5957C464.301 2.61393 465.104 2.10417 465.595 2.06641C466.69 2.00977 468.427 2.95378 470.806 4.89844C473.203 6.82422 475.762 9.08984 478.48 11.6953C481.218 9.08984 483.776 6.80534 486.155 4.8418C488.553 2.87826 490.318 1.93424 491.451 2.00977C491.923 2.04753 492.707 2.53841 493.802 3.48242C494.916 4.40755 496.02 5.47428 497.115 6.68262C498.229 7.89095 499.173 9.08984 499.947 10.2793C500.74 11.4688 501.061 12.3278 500.91 12.8564ZM511.437 15.6602C510.228 15.6224 508.85 15.3581 507.302 14.8672C505.772 14.3574 504.555 13.7155 503.648 12.9414C502.61 12.1107 502.223 11.1572 502.487 10.0811C503.205 7.56999 504.649 5.42708 506.82 3.65234C509.01 1.8776 511.408 0.867513 514.014 0.62207C517.129 0.357747 519.961 0.876953 522.51 2.17969C525.077 3.48242 527.117 5.2194 528.627 7.39062C530.156 9.56185 531.034 11.988 531.261 14.6689C531.506 17.3499 530.864 19.9176 529.335 22.3721C527.768 24.9209 524.983 26.7145 520.98 27.7529C520.018 27.9984 519.583 28.8197 519.678 30.2168C519.734 30.7643 519.206 31.1797 518.092 31.4629C516.978 31.7272 515.741 31.8783 514.382 31.916C513.041 31.9349 511.814 31.8311 510.7 31.6045C509.605 31.3779 509.105 31.0192 509.199 30.5283C508.803 28.1117 508.774 26.1292 509.114 24.5811C509.473 23.0329 510.115 21.7113 511.04 20.6162C512.211 19.238 513.74 18.3034 515.628 17.8125C517.516 17.3027 518.649 16.6986 519.026 16C519.763 14.5651 519.055 13.6211 516.902 13.168C514.769 12.696 513.57 13.1113 513.306 14.4141C513.098 15.3203 512.475 15.7357 511.437 15.6602ZM515.713 44.9717C513.712 45.1605 511.984 44.5469 510.53 43.1309C509.076 41.696 508.52 39.9779 508.859 37.9766C509.124 36.334 509.926 35.0029 511.267 33.9834C512.626 32.9639 514.155 32.5957 515.854 32.8789C517.101 33.1055 518.196 33.5775 519.14 34.2949C520.103 35.0124 520.726 36.013 521.009 37.2969C521.424 39.1094 521.103 40.7897 520.046 42.3379C518.989 43.8861 517.544 44.764 515.713 44.9717Z" fill="#183282"/>
</svg>
